<?xml version="1.0" encoding="utf-8"?>
<!-- Generator: Adobe Illustrator 25.2.0, SVG Export Plug-In . SVG Version: 6.00 Build 0)  -->
<svg version="1.1" id="OBJECTS" xmlns="http://www.w3.org/2000/svg" xmlns:xlink="http://www.w3.org/1999/xlink" x="0px" y="0px"
	 viewBox="0 0 500 334.7" style="enable-background:new 0 0 500 334.7;" xml:space="preserve">
<style type="text/css">
	.st0{opacity:0.1;fill:#FFFFFF;}
	.st1{fill:#FFFFFF;}
	.st2{fill:#CEDCF0;}
	.st3{clip-path:url(#SVGID_2_);fill:#22214A;}
	.st4{clip-path:url(#SVGID_2_);}
	.st5{fill:url(#SVGID_3_);}
	.st6{fill:url(#SVGID_4_);}
	.st7{fill:url(#SVGID_5_);}
	.st8{fill:#474A59;}
	.st9{fill:#6A10C4;}
	.st10{fill:#FC6D1D;}
	.st11{fill:url(#SVGID_6_);}
	.st12{fill:#696969;}
	.st13{clip-path:url(#SVGID_8_);}
	.st14{fill:#43425C;}
	.st15{fill:#EB9481;}
	.st16{fill:#FAB6A7;}
	.st17{fill:#61382F;}
	.st18{fill:#F27961;}
	.st19{fill:#D5D5E0;}
	.st20{opacity:0.5;}
	.st21{fill:#353742;}
	.st22{fill:#A84913;}
	.st23{fill:#4D0B99;}
	.st24{fill:#FFB61A;}
	.st25{fill:#E7C37B;}
	.st26{fill:#D6835C;}
	.st27{fill:#E79D7B;}
	.st28{fill:none;}
</style>
<g>
	<path class="st0" d="M312.6,53.7c17.6-18,46.6-18.4,64.6-0.7c18,17.6,18.4,46.5,0.7,64.6c-17.6,18-46.6,18.4-64.6,0.7
		C295.3,100.6,294.9,71.7,312.6,53.7z"/>
	<path class="st1" d="M321.1,62c13.1-13.3,34.4-13.6,47.8-0.5c13.3,13.1,13.6,34.4,0.5,47.8c-13,13.3-34.4,13.6-47.8,0.5
		C308.2,96.7,308,75.3,321.1,62z"/>
	<path class="st2" d="M349.2,64.7c12.9,12.6,13.1,33.2,0.5,46c-2.9,3-6.3,5.3-9.9,6.9c10.2,1.7,21-1.4,28.7-9.3
		c12.6-12.9,12.3-33.5-0.5-46c-9.9-9.6-24.3-11.8-36.1-6.4C338.2,57,344.2,59.9,349.2,64.7z"/>
	<g>
		<path class="st1" d="M368.7,94.6c1.7-3.3,4.7-5.1,6.7-4.1c2,1,2.3,4.6,0.6,7.9c-1.7,3.3-4.7,5.1-6.7,4.1
			C367.3,101.4,367,97.9,368.7,94.6z"/>
		<path class="st1" d="M361,99.7c0.7-1.7,2.4-2.7,3.8-2.1c1.4,0.6,2,2.4,1.3,4.2c-0.7,1.7-2.4,2.7-3.8,2.1
			C360.8,103.3,360.3,101.5,361,99.7z"/>
		<path class="st1" d="M362.8,87.6c0.8-2.5,3.1-4.1,5-3.5c1.9,0.6,2.8,3.2,1.9,5.8c-0.8,2.5-3.1,4.1-5,3.5
			C362.8,92.7,361.9,90.1,362.8,87.6z"/>
		<path class="st1" d="M365.7,105.4c0.8-1,2.2-1.4,2.9-0.8c0.8,0.6,0.7,2-0.1,3c-0.8,1-2.2,1.4-2.9,0.8
			C364.8,107.9,364.9,106.5,365.7,105.4z"/>
		<path class="st1" d="M355.4,94.3c0.8-2.5,2.8-4.2,4.4-3.7c1.6,0.5,2.2,3,1.3,5.6c-0.8,2.5-2.8,4.2-4.4,3.7
			C355.2,99.3,354.6,96.8,355.4,94.3z"/>
	</g>
	<g>
		<g>
			<path class="st2" d="M375.5,91.6c1.2,1.1,1.1,3.9-0.2,6.4c-0.7,1.5-1.8,2.6-2.9,3.3c-0.6,0.4-1.7,0.9-2.7,0.4
				c-0.2-0.1-0.3-0.2-0.4-0.3c-1.2-1.1-1.1-3.9,0.2-6.4c1.4-2.8,4-4.5,5.6-3.7C375.2,91.3,375.4,91.4,375.5,91.6z"/>
		</g>
		<g>
			<path class="st2" d="M364.9,98.7c0.6,0.6,0.8,1.7,0.3,2.8c-0.5,1.3-1.8,2-2.7,1.6c-0.2-0.1-0.3-0.2-0.5-0.3
				c-0.6-0.6-0.8-1.7-0.3-2.8c0.3-0.7,0.7-1.2,1.3-1.5c0.5-0.3,1-0.3,1.4-0.1C364.7,98.5,364.8,98.6,364.9,98.7z"/>
		</g>
		<g>
			<path class="st2" d="M368.3,85.4c0.9,0.9,1.2,2.6,0.6,4.2c-0.7,2.1-2.5,3.4-3.9,2.9c-0.3-0.1-0.5-0.3-0.8-0.5
				c-0.9-0.9-1.2-2.6-0.6-4.2c0.4-1.1,1-1.9,1.8-2.5c0.7-0.5,1.5-0.6,2.1-0.4C367.8,85,368,85.2,368.3,85.4z"/>
		</g>
		<g>
			<path class="st2" d="M368.2,105.4c0.3,0.3,0.3,1.1-0.3,1.8c-0.6,0.7-1.4,0.9-1.7,0.6c0,0,0,0,0,0c-0.3-0.3-0.3-1.1,0.3-1.8
				c0.3-0.4,0.7-0.6,1-0.7C367.6,105.2,367.9,105.2,368.2,105.4C368.1,105.4,368.2,105.4,368.2,105.4z"/>
		</g>
		<g>
			<path class="st2" d="M360,91.7c0.7,0.6,1,2.3,0.3,4.2c-0.7,2.2-2.3,3.4-3.3,3.1c-0.2,0-0.3-0.1-0.4-0.3c-0.7-0.6-1-2.3-0.3-4.2
				c0.4-1.1,1-2,1.7-2.6c0.3-0.3,1-0.7,1.6-0.5C359.7,91.5,359.8,91.6,360,91.7z"/>
		</g>
	</g>
</g>
<g>
	<defs>
		<path id="SVGID_1_" d="M285.4,67.2L263.3,7.8L127.4,58.5l22.2,59.4c-19.7,30.9-25.2,70.3-11.4,107.2
			c23.3,62.4,92.8,94.2,155.2,70.9c62.4-23.3,94.2-92.8,70.8-155.2C350.5,103.8,320.5,77.6,285.4,67.2z"/>
	</defs>
	<clipPath id="SVGID_2_">
		<use xlink:href="#SVGID_1_"  style="overflow:visible;"/>
	</clipPath>
	
		<ellipse transform="matrix(0.7071 -0.7071 0.7071 0.7071 -55.7401 231.2134)" class="st3" cx="251.2" cy="182.9" rx="120.7" ry="120.7"/>
	<g class="st4">
		<g>
			
				<linearGradient id="SVGID_3_" gradientUnits="userSpaceOnUse" x1="1284.0609" y1="311.5954" x2="1345.309" y2="185.5995" gradientTransform="matrix(0.9369 -0.3497 0.3497 0.9369 -1115.8708 484.8113)">
				<stop  offset="0" style="stop-color:#E6E9FA"/>
				<stop  offset="1" style="stop-color:#9DA2BD"/>
			</linearGradient>
			<path class="st5" d="M173.4,182.6c0,0-43.1,23.8-24.4,91.3c18.8,67.4,51.9,105.5,51.9,105.5l52.5-19.6L173.4,182.6z"/>
			
				<linearGradient id="SVGID_4_" gradientUnits="userSpaceOnUse" x1="283.5649" y1="311.0446" x2="344.8123" y2="185.0499" gradientTransform="matrix(-0.9369 0.3497 0.3497 0.9369 547.342 -135.3915)">
				<stop  offset="0" style="stop-color:#E6E9FA"/>
				<stop  offset="1" style="stop-color:#9DA2BD"/>
			</linearGradient>
			<path class="st6" d="M312.5,130.7c0,0,48.2-10.3,78.2,53c30,63.2,29.9,113.7,29.9,113.7L368.2,317L312.5,130.7z"/>
		</g>
		
			<linearGradient id="SVGID_5_" gradientUnits="userSpaceOnUse" x1="1387.76" y1="151.9955" x2="1387.76" y2="358.4893" gradientTransform="matrix(0.9369 -0.3497 0.3497 0.9369 -1115.8708 484.8113)">
			<stop  offset="0" style="stop-color:#E6E9FA"/>
			<stop  offset="1" style="stop-color:#C8CCE3"/>
		</linearGradient>
		<path class="st7" d="M299.1,121.6c-12.7-2.1-62.9,16.7-62.9,16.7l0,0.1l0-0.1c0,0-50.3,18.8-58.5,28.6
			c-8.5,10.2-13.1,19.9-3.4,45.7c5.4,14.6,15.8,42.3,26.3,70.3c15.7,42.1,49,78.3,49,78.3l122.8-45.8c0,0,1.4-49.2-14.3-91.3
			c-10.5-28-20.8-55.8-26.3-70.3C322,128.1,312.1,123.7,299.1,121.6z"/>
		<path class="st8" d="M261.2,247.2l27.3-10.2c28-10.4,42.2-41.7,31.8-69.6l-16.8-44.9c-1.5-0.3-2.9-0.6-4.5-0.9
			c-12.7-2.1-62.9,16.7-62.9,16.7l0,0.1l0-0.1c0,0-50.3,18.8-58.5,28.6c-1,1.2-1.9,2.4-2.8,3.6l16.8,44.9
			C202,243.4,233.3,257.7,261.2,247.2z"/>
		<path class="st9" d="M178.9,155.8l21.1,56.5c8.7,23.3,34.7,35.2,58,26.5l27.3-10.2c23.3-8.7,35.2-34.7,26.5-58L290.8,114
			L178.9,155.8z"/>
		<path class="st8" d="M292.7,107.1c13.6,36.4-2.2,75.9-35.3,88.2c-33.1,12.3-70.9-7.1-84.5-43.5c-13.6-36.4,2.2-75.9,35.3-88.2
			C241.3,51.3,279.2,70.7,292.7,107.1z"/>
		<g>
			<g>
				<path class="st10" d="M305.7,97.9c0.4,1,0,2.4-0.9,3.3l-9.4,8.6c-1.8,1.7-3.9,1.9-4.5,0.3l-12.3-32.9c-0.6-1.6,1.1-2.7,3.6-2.7
					L295,75c1.3,0,2.5,0.9,2.9,1.9L305.7,97.9z"/>
				<path class="st10" d="M157.1,153.4c0.4,1,1.6,1.8,2.9,1.9l12.8,0.4c2.5,0.1,4.2-1.1,3.6-2.7L164,120.1c-0.6-1.6-2.6-1.3-4.5,0.3
					l-9.4,8.6c-0.9,0.9-1.3,2.3-1,3.3L157.1,153.4z"/>
			</g>
			
				<linearGradient id="SVGID_6_" gradientUnits="userSpaceOnUse" x1="1386.6569" y1="57.3238" x2="1388.9069" y2="191.5717" gradientTransform="matrix(0.9369 -0.3497 0.3497 0.9369 -1115.8708 484.8113)">
				<stop  offset="0" style="stop-color:#FFFFFF"/>
				<stop  offset="1" style="stop-color:#E6E9FA"/>
			</linearGradient>
			<path class="st11" d="M293.4,90.5c13.6,36.4-4.9,76.9-41.3,90.5c-36.4,13.6-76.9-4.9-90.5-41.3c-13.6-36.4,4.9-76.9,41.3-90.5
				C239.3,35.7,279.8,54.2,293.4,90.5z"/>
			<path class="st12" d="M245.2,162.7c-36.3,13.6-73.9,3.2-83.7-23c-9.8-26.2,11.8-58.6,48.1-72.2c36.3-13.6,73.9-3.2,83.7,23
				C303.2,116.8,281.6,149.2,245.2,162.7z"/>
			<g>
				<defs>
					<path id="SVGID_7_" d="M291.5,91.2c9,24.2-12.3,54.5-47.7,67.7c-35.4,13.2-71.3,4.3-80.4-19.9c-9-24.2,12.3-54.5,47.7-67.7
						C246.5,58.1,282.5,67,291.5,91.2z"/>
				</defs>
				<clipPath id="SVGID_8_">
					<use xlink:href="#SVGID_7_"  style="overflow:visible;"/>
				</clipPath>
				<g class="st13">
					
						<rect x="148" y="45" transform="matrix(0.9369 -0.3497 0.3497 0.9369 -26.3699 87.0888)" class="st14" width="160" height="143.2"/>
					<g>
						<path class="st15" d="M280.3,109c1.5,7.2-1.1,13.9-5.8,14.8c-4.7,1-9.7-4.1-11.2-11.4c-1.5-7.2,1.1-13.9,5.8-14.8
							C273.9,96.7,278.9,101.8,280.3,109z"/>
						<path class="st15" d="M183.6,145.2c3.6,6.4,10,9.7,14.1,7.4c4.2-2.4,4.6-9.5,1-15.9c-3.6-6.4-10-9.7-14.1-7.4
							C180.4,131.6,179.9,138.7,183.6,145.2z"/>
					</g>
					<path class="st16" d="M255.6,77.1c-12-17.8-45.4-8.1-45.4-8.1l0,0l0,0c0,0-31.5,14.6-28.9,35.9c2.6,21.3,14.9,45.1,22.5,56
						c7.6,10.9,29.7,17.7,45.2,12l0,0l0,0c15.5-5.8,27.7-25.5,26.3-38.6C274,121,267.6,94.9,255.6,77.1z"/>
					<path class="st9" d="M242.6,78.6c0,0,10.6,17.4,24.5,21.6c0,0,3-13.8-2.4-25.4c0,0,3.6,1.3,7.3,0.3
						c-4.3-6.8-13.7-18.6-25.2-19.8c0,0-16.8-9.6-40.7-0.7c-23.8,8.9-39.4,36.2-40.4,37.3c-1,1.2,1,4.9,5.1,4.3
						c-3.7,6.9-1.1,19,0.5,23.2c0.9,2.5,4-1.1,4-1.1s2.7,7.1,6.6,11.1c4,4,5.7,3.8,6.8,2.7c1.1-1.1,17.5-25.4,21.8-36.9
						c0,0,1.3,13.1,3.7,13.2c2.4,0.1,14.9-17.3,16.3-25.4c0,0,2.1,12.9,3.2,12.8C235,95.8,240.9,89.4,242.6,78.6z"/>
					<g>
						<path class="st17" d="M255.3,114.8c0.9,2.4,0.2,4.9-1.6,5.5c-1.8,0.7-4-0.7-4.9-3.1c-0.9-2.4-0.2-4.9,1.6-5.5
							C252.2,111,254.4,112.4,255.3,114.8z"/>
						<path class="st9" d="M242.8,108.3c-1.6,1.7-4.9-1.2-4.4-3.7c0.5-2.5,5-5.1,8.5-5.8c3.5-0.7,5.2,0.2,5.5,1.1
							C252.7,101,247.3,103.4,242.8,108.3z"/>
						<path class="st17" d="M206.2,133.1c0.9,2.4,3.1,3.8,4.9,3.1c1.8-0.7,2.5-3.1,1.6-5.5c-0.9-2.4-3.1-3.8-4.9-3.1
							C206.1,128.2,205.3,130.7,206.2,133.1z"/>
						<path class="st9" d="M211.5,120c2.3,0.3,2.9-4.1,0.9-5.7c-2-1.6-7.1-0.5-10.2,1.2c-3.1,1.8-3.8,3.5-3.4,4.5
							C199.2,121,204.8,119.3,211.5,120z"/>
					</g>
					<path class="st18" d="M232.4,126c-1.8,0-1.3,9.5-1.2,13.4c0,4,2.4,5.7,5,6.2c2.6,0.4,4.8-0.3,5.3-2.5
						C242,140.9,236.2,126,232.4,126z"/>
					<path class="st17" d="M253,150.3c0,0-0.3,0.1-0.9,0.2c-0.3,0-0.7,0.1-1.1,0.1c-0.4,0-0.9,0.1-1.3,0.2c-0.5,0.1-0.9,0.2-1.4,0.3
						c-0.5,0.1-1,0.3-1.6,0.5c-0.5,0.2-1.1,0.3-1.7,0.6c-0.5,0.3-1.1,0.5-1.7,0.8c-0.5,0.3-1,0.7-1.5,1c-0.6,0.3-1,0.7-1.4,1.1
						c-0.4,0.4-0.9,0.7-1.3,1.1c-0.4,0.4-0.7,0.7-1.1,1.1c-0.4,0.3-0.6,0.7-0.8,1c-0.2,0.3-0.5,0.6-0.6,0.8
						c-0.4,0.4-0.6,0.7-0.6,0.7l-0.1,0.1c-0.2,0.3-0.6,0.3-0.9,0.1c-0.2-0.2-0.3-0.4-0.2-0.6c0,0,0.1-0.3,0.3-0.9
						c0.1-0.3,0.2-0.7,0.4-1.1c0.2-0.4,0.3-0.9,0.6-1.3c0.3-0.5,0.6-1,1-1.5c0.3-0.5,0.8-1,1.3-1.5c0.5-0.5,1-1,1.6-1.4
						c0.6-0.4,1.2-0.8,1.8-1.2c0.7-0.3,1.3-0.6,2-0.9c0.7-0.3,1.4-0.4,2-0.6c0.7-0.1,1.3-0.3,2-0.3c0.7,0,1.3,0,1.8,0
						c0.6,0,1,0.1,1.4,0.2c0.4,0.1,0.8,0.2,1,0.3c0.6,0.2,0.9,0.3,0.9,0.3c0.3,0.1,0.4,0.4,0.3,0.6
						C253.3,150.1,253.1,150.3,253,150.3z"/>
					<path class="st19" d="M216.7,86.4c27.2-10.1,53.1-12.1,67.6-6.4c-14.6-15.4-44.1-19.5-73.3-8.7c-29.1,10.9-48.7,33.4-49.7,54.5
						C168.7,112,189.6,96.5,216.7,86.4z"/>
					<path class="st19" d="M238.2,143.9c-27.2,10.1-53.1,12.1-67.6,6.4c14.6,15.4,44.1,19.5,73.3,8.7c29.1-10.9,48.7-33.4,49.7-54.5
						C286.3,118.3,265.4,133.8,238.2,143.9z"/>
				</g>
			</g>
			<g class="st20">
				<g>
					<path class="st1" d="M190.8,98.2c-1.4,0.5-3,0.1-3.9-1.1c-1.2-1.5-1-3.7,0.5-4.9c0.6-0.5,1.2-0.9,1.8-1.4
						c1.5-1.2,3.7-0.9,4.9,0.7c1.2,1.5,0.9,3.7-0.7,4.9c-0.6,0.4-1.1,0.8-1.6,1.3C191.5,97.9,191.1,98,190.8,98.2z"/>
				</g>
				<g>
					<path class="st1" d="M172.9,139.2c-1.8,0.7-3.8-0.2-4.5-2.1c-4.2-11.4-0.4-24.9,10.7-37.2c1.3-1.4,3.5-1.6,4.9-0.3
						c1.4,1.3,1.6,3.5,0.3,4.9c-9.2,10.2-12.6,21.2-9.3,30C175.6,136.6,174.7,138.6,172.9,139.2z"/>
				</g>
			</g>
		</g>
		<g>
			<path class="st8" d="M286.4,269.4c-27,10.1-55.5,16.2-84.8,17.9c-0.8,0-1.5-0.6-1.6-1.4c0-0.8,0.6-1.5,1.4-1.6
				c57-3.4,111.2-23.4,156.8-57.7c0.7-0.5,1.6-0.4,2.1,0.3c0.5,0.7,0.4,1.6-0.3,2.1C337.4,246.1,312.6,259.6,286.4,269.4z"/>
		</g>
		<path class="st21" d="M329.2,284.1c0.6,1.6-0.2,3.3-1.8,3.9l-62.1,23.2c-1.6,0.6-3.3-0.2-3.9-1.8l-15.7-42
			c-0.6-1.6,0.2-3.3,1.8-3.9l62.1-23.2c1.6-0.6,3.3,0.2,3.9,1.8L329.2,284.1z"/>
		<path class="st8" d="M329.2,284.1c0.6,1.6-0.2,3.3-1.8,3.9l-62.1,23.2c-1.6,0.6-3.3-0.2-3.9-1.8l-12.3-32.9
			c-0.6-1.6,0.2-3.3,1.8-3.9l62.1-23.2c1.6-0.6,3.3,0.2,3.9,1.8L329.2,284.1z"/>
		<g>
			<path class="st22" d="M269.6,275.5c0.6,1.6-0.2,3.3-1.8,3.9l-6.7,2.5c-1.6,0.6-3.3-0.2-3.9-1.8l-0.6-1.7
				c-0.6-1.6,0.2-3.3,1.8-3.9l6.7-2.5c1.6-0.6,3.3,0.2,3.9,1.8L269.6,275.5z"/>
			<path class="st22" d="M291.3,267.4c0.6,1.6-0.2,3.3-1.8,3.9l-6.7,2.5c-1.5,0.6-3.3-0.2-3.9-1.8l-0.6-1.7
				c-0.6-1.5,0.2-3.3,1.8-3.9l6.7-2.5c1.6-0.6,3.3,0.2,3.9,1.8L291.3,267.4z"/>
			<path class="st22" d="M313,259.3c0.6,1.6-0.2,3.3-1.8,3.9l-6.7,2.5c-1.6,0.6-3.3-0.2-3.9-1.8l-0.6-1.7c-0.6-1.6,0.2-3.3,1.8-3.9
				l6.7-2.5c1.6-0.6,3.3,0.2,3.9,1.8L313,259.3z"/>
		</g>
		<g>
			<path class="st10" d="M270.5,277.9c0.6,1.6-0.2,3.3-1.8,3.9l-6.7,2.5c-1.6,0.6-3.3-0.2-3.9-1.8l-0.6-1.7
				c-0.6-1.6,0.2-3.3,1.8-3.9l6.7-2.5c1.6-0.6,3.3,0.2,3.9,1.8L270.5,277.9z"/>
			<path class="st10" d="M292.2,269.8c0.6,1.5-0.2,3.3-1.8,3.9l-6.7,2.5c-1.6,0.6-3.3-0.2-3.9-1.8l-0.6-1.7
				c-0.6-1.6,0.2-3.3,1.8-3.9l6.7-2.5c1.5-0.6,3.3,0.2,3.9,1.8L292.2,269.8z"/>
			<path class="st10" d="M314,261.7c0.6,1.5-0.2,3.3-1.8,3.9l-6.7,2.5c-1.6,0.6-3.3-0.2-3.9-1.8l-0.6-1.7c-0.6-1.6,0.2-3.3,1.8-3.9
				l6.7-2.5c1.6-0.6,3.3,0.2,3.9,1.8L314,261.7z"/>
		</g>
		<g>
			<path class="st23" d="M319.2,275.9c0.6,1.6-0.2,3.3-1.8,3.9l-50.1,18.7c-1.6,0.6-3.3-0.2-3.9-1.8l-0.6-1.7
				c-0.6-1.6,0.2-3.3,1.8-3.9l50.1-18.7c1.6-0.6,3.3,0.2,3.9,1.8L319.2,275.9z"/>
			<path class="st9" d="M320.2,278.3c0.6,1.6-0.2,3.3-1.8,3.9l-50.1,18.7c-1.6,0.6-3.3-0.2-3.9-1.8l-0.6-1.7
				c-0.6-1.6,0.2-3.3,1.8-3.9l50.1-18.7c1.6-0.6,3.3,0.2,3.9,1.8L320.2,278.3z"/>
		</g>
	</g>
</g>
<g>
	<polygon class="st24" points="318.6,326.9 313.2,321.7 305.6,322 308.9,315.2 306.3,308.2 313.7,309.2 319.6,304.5 321,311.9 
		327.3,316.1 320.6,319.6 	"/>
	<polygon class="st24" points="105.9,280.7 101.4,279.5 97.5,281.9 97.2,277.4 93.7,274.4 98,272.7 99.7,268.5 102.6,272 
		107.2,272.3 104.8,276.2 	"/>
	<polygon class="st24" points="409.6,250.8 405.2,249.7 401.3,252.1 401,247.5 397.5,244.6 401.7,242.9 403.5,238.6 406.4,242.2 
		411,242.5 408.5,246.4 	"/>
	<polygon class="st24" points="262.4,33.8 258.5,30.1 253.2,30.4 255.5,25.6 253.6,20.6 258.9,21.3 263.1,18 264,23.2 268.5,26.2 
		263.8,28.7 	"/>
</g>
<g>
	<g id="XMLID_4168_">
		<g>
			<path class="st25" d="M164.4,65.8c3.6,0.4,5.8,0.5,5.9,0c0.1-0.5-1.8-1.5-5.3-2.7c0.3-1.6,0.4-3.2,0.4-4.8l0,0
				c13.6,4.5,22.2,8.9,21.7,11.4c-0.6,2.5-10.3,2.6-24.5,0.6c-7.7-1.1-16.7-2.8-26.2-5c-9.5-2.2-18.4-4.7-25.7-7.2
				c-13.6-4.5-22.3-8.9-21.7-11.4c0.6-2.5,10.3-2.6,24.5-0.6c-0.2,0.4-0.4,0.8-0.6,1.3c-0.5,1.1-0.8,2.1-1.1,3.2
				c-3.6-0.4-5.8-0.5-5.9,0c-0.1,0.5,1.8,1.4,5.3,2.7c5.6,2,15.3,4.7,26.4,7.3C148.6,63.2,158.5,65.1,164.4,65.8z"/>
			<path class="st26" d="M162.7,70.3c-6.4,13-21.9,18.8-35.4,13.1c-10.4-4.5-16.6-14.6-16.6-25.2c7.4,2.4,16.2,4.9,25.7,7.2
				C146,67.5,155,69.2,162.7,70.3z M165.5,58.3c0-10.6-6.2-20.8-16.6-25.2c-13.5-5.8-29,0.1-35.4,13.1c-0.2,0.4-0.4,0.8-0.6,1.3
				c-0.5,1.1-0.8,2.1-1.1,3.2c-0.3,0.9-0.5,1.8-0.6,2.7c5.6,2,15.3,4.7,26.4,7.3c11.1,2.6,20.9,4.5,26.9,5.2
				c0.3-0.9,0.5-1.8,0.6-2.7C165.4,61.5,165.5,59.9,165.5,58.3z"/>
			<g>
				<path class="st27" d="M136.5,65.3c-9.5-2.2-18.4-4.7-25.7-7.2c0,7.4,3,14.6,8.4,19.8c8.2-1.9,15.8-5.8,22-11.6
					C139.6,66,138,65.7,136.5,65.3z"/>
				<path class="st27" d="M111.2,53.3c5.6,2,15.3,4.7,26.4,7.3c2.6,0.6,5,1.2,7.4,1.7c3.1-3.6,5.6-7.7,7.6-12.2
					c1.8-4.1,2.9-8.3,3.5-12.6c-2.1-1.8-4.5-3.3-7.1-4.5c-13.5-5.8-29,0.1-35.4,13.1c-0.2,0.4-0.4,0.8-0.6,1.3
					c-0.5,1.1-0.8,2.1-1.1,3.2C111.5,51.5,111.3,52.4,111.2,53.3z"/>
			</g>
		</g>
		<g>
			<path class="st28" d="M111.2,53.3c0.2-0.9,0.4-1.8,0.6-2.7c0.3-1.1,0.7-2.2,1.1-3.2c0.2-0.4,0.4-0.9,0.6-1.3
				c6.4-13,21.9-18.8,35.4-13.1c10.4,4.5,16.6,14.6,16.6,25.2c0,1.6-0.2,3.2-0.4,4.8c-0.2,0.9-0.4,1.8-0.6,2.7l0,0"/>
			<path class="st28" d="M162.7,70.3c-6.4,13-21.9,18.8-35.4,13.1c-10.4-4.5-16.6-14.6-16.6-25.2"/>
			<path class="st28" d="M165.5,58.3c13.6,4.5,22.2,8.9,21.7,11.4c-0.6,2.5-10.3,2.6-24.5,0.6c-7.7-1.1-16.7-2.8-26.2-5
				c-9.5-2.2-18.4-4.7-25.7-7.2c-13.6-4.5-22.3-8.9-21.7-11.4c0.6-2.5,10.3-2.6,24.5-0.6"/>
			<path class="st28" d="M165.1,63.1L165.1,63.1c3.4,1.2,5.4,2.2,5.3,2.7c-0.1,0.5-2.3,0.5-5.9,0c-5.9-0.7-15.8-2.6-26.9-5.2
				c-11.1-2.6-20.7-5.3-26.4-7.3c-3.4-1.2-5.4-2.2-5.3-2.7c0.1-0.5,2.3-0.5,5.9,0"/>
		</g>
	</g>
</g>
</svg>
