<?xml version="1.0" encoding="utf-8"?>
<!-- Generator: Adobe Illustrator 25.2.0, SVG Export Plug-In . SVG Version: 6.00 Build 0)  -->
<svg version="1.1" id="Layer_1" xmlns="http://www.w3.org/2000/svg" xmlns:xlink="http://www.w3.org/1999/xlink" x="0px" y="0px"
	 viewBox="0 0 490.1 352.1" style="enable-background:new 0 0 490.1 352.1;" xml:space="preserve">
<style type="text/css">
	.st0{fill:#32BF75;}
	.st1{fill:#2E2E47;}
	.st2{fill:#FFE2BD;}
	.st3{fill:#6A10C4;}
	.st4{fill:#FFFFFF;}
	.st5{fill:#5591F2;}
	.st6{fill:#CC8B70;}
	.st7{fill:#C96B59;}
	.st8{fill:#EAE6E4;}
	.st9{fill:#FFC97D;}
	.st10{fill:#7A38F5;}
	.st11{fill:#E73C7D;}
</style>
<g>
	<g>
		<path class="st0" d="M262,60.5c0,0,13.5,7,39.3,15.6s40.9,35.3,53.1,60.8c12.1,25.6,59.2,16.4,74.6,29.4
			c15.4,12.9,27.6,39.7,27.6,39.7s-54.9,3.8-66.6,17.5c-11.6,13.7-26.6,21.4-45,21.1c-18.5-0.3-58.6-26.4-79.1-26.2
			c-20.6,0.3-62.8-12.6-81.8-11.3c-19,1.2-23.5-6.8-23.5-6.8s31.1-50.5,38.5-74.2s6.3-36.4,19.5-48.6
			C231.6,65.3,248.6,56.9,262,60.5z"/>
		<path class="st1" d="M231.9,318.6c0,0,0.7,5.9,1.6,8.6c0.9,2.7,2.7,10.2,2.9,11.2c0.1,1,0.1,9,2.1,9.6c2,0.7,4.2-11.9,5.3-16
			c1.1-4.2,0.5-14.7,0-18.8C243.2,309.2,229.3,306.4,231.9,318.6z"/>
		<path class="st1" d="M186.5,202.7l-25.1,17.5c0,0-7.6,5.3,4.9,14.7s63.6-4.3,75.9,3.4c12.3,7.7-14.3-24.5-28.1-29.2
			C200.3,204.3,186.5,202.7,186.5,202.7z"/>
		<path class="st1" d="M252.6,264.7c0,0-7-1.4-8.6,1.1s4.3,21.5,6.3,24.2s5.1,6.8,11,9.4c5.9,2.5,10.1,3.7,11.4,2.2
			s-4.6-4.8-5.7-7.6c-1.1-2.8-6.6-13.7-6.6-18C260.4,271.6,257,265,252.6,264.7z"/>
		<path class="st2" d="M190.4,197.7c0,0-20.3,27.3-2.7,61.9c7.4,14.6,29.7,73.3,54.7,57.1c9-5.9-7.1-77.9-7.1-77.9
			s10.9-25.7,9.9-30.5C244.2,203.5,190.4,197.7,190.4,197.7z"/>
		<path class="st2" d="M307.1,204.9c0,0,12.1,30,7.3,45.6c-4.9,15.6-26.9,32.9-34.7,33.3c-31.2,1.7-32.6-8.5-31.1-26.3
			c0.9-11.2,13.9-17.7,13.9-17.7s-2.9-22.4-3.7-27.3C257.8,207.7,307.1,204.9,307.1,204.9z"/>
		<path class="st1" d="M212.9,213c-10.2-4-21.7-4.4-28.4-3.7c-1.1,2.8-2.1,6.1-2.8,9.7c7.2,0.1,24.8,1,34.9,6
			c11,5.5,18.1,9.8,19.9,10.9c0-0.1,0.1-0.2,0.1-0.3C234.9,232.6,226.6,218.3,212.9,213z"/>
		<path class="st1" d="M292.5,248.1c9.8-3.3,17.9-8.5,22.7-12c-0.4-3.6-1.1-7.4-1.9-10.9c-7.7,3.1-33.7,13.5-46.6,15.5
			c-2.2,0.3-4.3,0.4-6.1,0.2c-2.1,1.3-5.9,4-8.6,7.8C259.7,249.8,279.8,252.4,292.5,248.1z"/>
		<path class="st3" d="M245.4,57.8c0,0-13.6,3.9-21.1,13.8s-6.4,39.5-9.8,48.9c-2.2,6.1-53.2,99.6-53.2,99.6s17.2-8.9,48.8-1.7
			c24.4,5.5,17.5,28.3,48.1,28.3c28.3,0,46.7-7.4,57.3-15.7c14.3-11.1,15.4-24,15.4-24s-42.4-80.3-44.7-94.9
			c-3.5-22.5-5.7-41.2-11.4-46.7C265.2,56.2,249.4,56.3,245.4,57.8z"/>
		<g>
			<path class="st4" d="M250.2,230c-0.1,0-0.2-0.1-0.2-0.2c0-0.2-2.7-17.3-1.9-30.8c0.8-14.4,1.9-28,2.7-35.9
				c0.8-8.8,2.1-24.8,2.4-31.1c0-0.1,0.1-0.2,0.2-0.2c0.1,0,0.2,0.1,0.2,0.2c-0.3,6.3-1.6,22.3-2.4,31.1c-0.7,7.9-1.8,21.5-2.7,35.9
				c-0.8,13.5,1.9,30.5,1.9,30.7S250.3,230,250.2,230L250.2,230z"/>
		</g>
		<path class="st1" d="M213.1,123.8c0,0,46.6,5.1,72.1,0l1.5,8.4c0,0-53.2,4.6-73.7-1.6L213.1,123.8L213.1,123.8z"/>
		<circle class="st5" cx="253" cy="119" r="17.9"/>
		<g>
			<path class="st1" d="M428.7,209.6c-0.1,0-0.2-0.1-0.2-0.2c0,0-0.7-3.8-4.2-9.2c-3.3-5-9.8-12.5-22.2-19.8
				c-13.1-7.7-23.8-10.6-33.2-13.1c-7.9-2.1-15.3-4.1-23-8.6c-8.8-5.1-13.9-15.1-16.7-22.5c-3-8.1-3.9-15-3.9-15.1s0.1-0.2,0.2-0.2
				s0.2,0.1,0.2,0.2s0.9,7,3.9,15c2.7,7.4,7.8,17.2,16.5,22.3c7.7,4.5,15.1,6.5,22.9,8.6c9.4,2.5,20.1,5.4,33.3,13.2
				c12.5,7.3,19,14.9,22.4,20c3.6,5.5,4.3,9.2,4.3,9.4C428.9,209.5,428.8,209.6,428.7,209.6L428.7,209.6z"/>
		</g>
		<path class="st5" d="M247.9,98.5c0,0,6.7-2.4,10.9,0c4.2,2.4,6.1,6,8,4.8s1.4-5.1-3.5-7.3c-4.9-2.2-14.7-1.3-18.2,1.2
			c0,0-0.6-1.4,1-2.4s4.6,0.2,4.8-1.4c0.3-1.6-1-2.5-4.8-1.2s-4.6,7-6.2,8.4c-1.6,1.4-5.1,3.7-3.6,4.3
			C237.9,105.4,244.9,99.2,247.9,98.5z"/>
		<path class="st1" d="M219.7,84c-1.2,5.8-1.8,12.4-2.4,18.6c9.4-5.9,10.9-22.8,10.9-23.2L219.7,84z"/>
		<path class="st5" d="M270.7,132.8c0.1-1.1-1.3-1.6-2-0.8c-0.9,1.1-2.3,2.6-4,4.1c-3.7,3.2-9.8,4.2-13.6,4s-4.4,4.6,1.9,5.1
			c6.3,0.4,13.6-3.2,16.2-7.7C270.3,135.7,270.7,134.1,270.7,132.8z"/>
		<path class="st4" d="M240.6,116.6c1.2-2,4.2-0.6,3.6,1.6c-0.3,1.2-0.6,2.9-0.2,4.9c0.7,3.5,4.1,5.6,7.2,6.1c3.1,0.5,5.7-1,5.1-1.3
			s-2.1,0.7-2.8-0.1c-0.7-0.8,2.8-1.5,4.7-2s2-2,3.5-1.3s-2.7,3.1-2.4,3.3c0.4,0.2,1.3-0.9,1.6-0.2c0.4,0.8-2.6,4.1-7.5,4.4
			s-9.2-0.7-11.4-4.1C239.9,124.4,239.3,118.9,240.6,116.6C240.6,116.7,240.6,116.7,240.6,116.6z"/>
		<path class="st4" d="M261.9,115.7c0,0-0.5-5-5.1-7s-8.4,3.8-5.9,6.2c2.5,2.3,3-1.8,5.6,0s1.6,4.7,3.6,4.4
			C262.2,119,261.9,115.7,261.9,115.7z"/>
		<g>
			<path class="st6" d="M283.9,123.5c-3,1-10.3-0.7-12.4-2.3c-2-1.5-4.4-4.4-5.5-5.4s-5.1-2.7-4.5-4c0.5-1.2,5.9,2.2,5.9,2.2
				s-2.7-3-4-3.7c-1.3-0.6-2.7-1.3-2.6-2.4c0.1-1.2,1.5-0.6,1.5-0.6s-2.2-0.9-2.1-1.9s1.9-1.1,4.5,0c2.5,1.1,5.1,2.5,5.1,2.5
				s-1.5-3.4-2.1-4.3c-0.7-0.9-2.9-2.4-1.6-3.1c1.2-0.7,6.3,5.4,8.3,7.5s11.5,9.3,12.2,10.9C287.3,120.7,285.1,123.1,283.9,123.5z"
				/>
			<path class="st6" d="M279.2,112.5c0,0-2.1-3.4-2.7-5c-0.5-1.6-0.4-5-2-3.5s-0.1,6.5,0.5,7.5C275.5,112.6,279.2,112.5,279.2,112.5
				z"/>
		</g>
		<g>
			<path class="st6" d="M221.3,124.1c3,1,10.3-0.7,12.4-2.3c2-1.5,4.4-4.4,5.5-5.4s5.1-2.7,4.5-4c-0.5-1.2-5.9,2.2-5.9,2.2
				s2.7-3,4-3.7c1.3-0.6,2.7-1.3,2.6-2.4c-0.1-1.2-1.5-0.6-1.5-0.6s2.2-0.9,2.1-1.9c-0.2-0.9-1.9-1.1-4.5,0
				c-2.5,1.1-5.1,2.5-5.1,2.5s1.5-3.4,2.1-4.3c0.7-0.9,2.9-2.4,1.6-3.1c-1.2-0.7-6.3,5.4-8.3,7.5s-11.5,9.3-12.2,10.9
				S220.1,123.7,221.3,124.1z"/>
			<path class="st6" d="M226,113.1c0,0,2.1-3.4,2.7-5c0.5-1.6,0.4-5,2-3.5s0.1,6.5-0.5,7.5C229.7,113.2,226,113.1,226,113.1z"/>
		</g>
		<path class="st3" d="M271.4,62.6c0,0,46.8,11.2,59.5,21.3s15.8,28.4,4.6,42c-6.8,8.3-39.1,26.2-45.4,24.5
			c-6.3-1.6-11.3-36.1-10-40.2c1.3-4.2,13.9-10.4,13.9-10.4s-8.9-5.5-14.4-11C270.7,80.1,271.4,62.6,271.4,62.6z"/>
		<path class="st3" d="M239.2,60.5c0,0-51,13.4-63.6,23.5c-12.7,10.1-15.8,28.4-4.6,42c6.8,8.3,39.1,26.2,45.4,24.5
			c6.3-1.6,11.3-36.1,10-40.2c-1.3-4.2-15.7-9.2-15.7-9.2s10.7-10.1,16.2-15.6C235.8,76.6,239.2,60.5,239.2,60.5z"/>
		<path class="st6" d="M241.4,36.4c-0.9-2.1-2-1.3-2.2-0.9c-1.1,2.1-0.4,4.7,0,6.4s1.7,2,1.7,2s0.4-2.6,0.4-3.3
			C241.4,38,241.5,37.5,241.4,36.4z"/>
		<path class="st0" d="M240.8,55.4c0,0-8.1,5.8-19.6,7.3c-11.5,1.5-20.7-2.4-19.5,1.5s20.7,9.5,27.6,10.9c7,1.4,26.1,7.5,26.1,7.5
			s16.3-8.4,26.3-9c10-0.5,20.9-6.5,21.8-8.7c0.9-2.3-10-1.8-17.3-2.7s-23.9-3-25.8-5.8C258.4,53.5,243,53.2,240.8,55.4z"/>
		<path class="st6" d="M240.3,39.8c0.3-2.8-0.9-7.8,1.8-12.3s13.4-5.8,17.6-2.5c4.2,3.2,3.5,9.2,3.5,9.2c0,0.5,0.1,0.9,0.2,1.2
			c0.1,0.2,0.2,0.4,0.4,0.5c0,1.5,0,4.7,0.1,5.4c0.1,1.2,0.3,8.3-0.3,10c-1,2.7-6.8,8-13.2,8c-6.4,0-10.1-3.9-11-7.9
			C238.9,49.4,240.1,41.1,240.3,39.8z"/>
		<path class="st1" d="M261.1,35.2c0,0,0,6.8-1.1,10.1c-1.1,3.3-1.3,2.8-3,2.5c-1.7-0.3-1-1-2.1-1.7c-3.4-2.1-8.9-1.4-10.4-0.9
			c-2.6,0.8-2.7,4.8-3.7,0.9c-0.2-0.8-0.1-6.7-0.5-6.6c-0.4,0.1-2,10.9-1.3,15.5c0.3,1.7,2,2.4,2,2.4s0.6,1.6,4.2,2.7
			c3.6,1,6.2-0.1,6.2-0.1s3.5,0.3,6-1.3c2.4-1.6,4.7-3.5,5.6-7.3s0.9-10.7,0.6-12.2C263.4,37.5,262.8,33.2,261.1,35.2z"/>
		<g>
			<path class="st1" d="M257,35.6L257,35.6c-0.1,0-3.2-0.8-5.1-0.3c-0.1,0-0.2,0-0.3-0.2c0-0.1,0-0.2,0.2-0.3c2-0.5,5.1,0.3,5.2,0.3
				s0.2,0.1,0.2,0.3S257.1,35.6,257,35.6z"/>
		</g>
		<g>
			<path class="st1" d="M241.6,36.6c-0.1,0-0.1,0-0.2-0.1c-0.1-0.1-0.1-0.2,0-0.3c1.3-1,3.8-1.1,4-1.1c0.1,0,0.2,0.1,0.2,0.2
				c0,0.1-0.1,0.2-0.2,0.2c0,0-2.5,0.1-3.7,1C241.7,36.6,241.7,36.6,241.6,36.6z"/>
		</g>
		<g>
			<path class="st1" d="M256.2,38.6L256.2,38.6c-2.7-0.1-3.9-0.4-4-0.4s-0.2-0.1-0.2-0.3c0-0.1,0.1-0.2,0.3-0.2c0,0,1.2,0.3,3.9,0.4
				c0.1,0,0.2,0.1,0.2,0.2C256.4,38.5,256.3,38.6,256.2,38.6z"/>
		</g>
		<path class="st1" d="M255.3,38.9c0.1,0.6,0.1,1.7-1.1,1.7c-1.2,0-1.2-1.5-1-2.1S255,37.6,255.3,38.9z"/>
		<g>
			<path class="st1" d="M242.2,38.8c-0.1,0-0.2,0-0.4,0c-0.1,0-0.2-0.1-0.2-0.2c0-0.1,0.1-0.2,0.2-0.2c1.6,0.1,3.3-0.4,3.4-0.4
				c0.1,0,0.2,0,0.3,0.1c0,0.1,0,0.2-0.1,0.3C245.3,38.4,243.8,38.8,242.2,38.8z"/>
		</g>
		<path class="st1" d="M244.8,38.9c0.3,0.5,0.4,1.6-0.7,1.8c-1.1,0.3-1.2-1.1-1.2-1.6C242.8,38.6,244.1,37.9,244.8,38.9z"/>
		
			<ellipse transform="matrix(0.9994 -3.334900e-02 3.334900e-02 0.9994 -1.265 8.5571)" class="st7" cx="255.9" cy="42.2" rx="2.8" ry="1.6"/>
		
			<ellipse transform="matrix(0.9994 -3.335473e-02 3.335473e-02 0.9994 -1.2724 8.1217)" class="st7" cx="242.8" cy="42.2" rx="2.5" ry="1.6"/>
		<path class="st6" d="M262.4,36.4c1.1-2.1,2.5-1.3,2.7-0.9c1.3,2.1,0.4,4.7-0.1,6.4s-2.1,2-2.1,2s-0.5-2.6-0.5-3.3
			C262.4,38,262.3,37.5,262.4,36.4z"/>
		<path class="st6" d="M244.5,46.5c1-0.6,3.4,0.1,5.5,0s3.8-0.3,4.5,0.5s-0.6,3.2-2.1,3.4c-1.6,0.3-2.3-1.4-3.6-1.2
			c-1.4,0.3-2.7,1.4-3.6,1C244.2,49.8,243.5,47.1,244.5,46.5z"/>
		<path class="st4" d="M244.6,47c5.2,0.3,9.4,0.1,9.4,0.1s-0.2,2.8-4.4,2.9C244.3,50.1,244.6,47,244.6,47z"/>
		<path class="st6" d="M246.6,43.8c0,0.1-0.1,1.8,1.8,2.1c1.9,0.3,2.9-1,2.6-2.1C250.7,42.6,247,42.4,246.6,43.8z"/>
		<g>
			<path class="st1" d="M247.1,45.5c-0.1,0-0.1,0-0.2-0.1c-0.7-0.9-0.5-1.4-0.3-2.3V43c0.2-0.8,0.6-3.3,0.4-5c-0.2-1.5-1-2.1-1-2.1
				c-0.1-0.1-0.1-0.2-0.1-0.3c0.1-0.1,0.2-0.1,0.3-0.1c0,0,1.1,0.7,1.2,2.5c0.2,1.8-0.2,4.2-0.4,5.1v0.1c-0.2,0.8-0.3,1.2,0.2,1.9
				C247.3,45.2,247.3,45.3,247.1,45.5C247.2,45.4,247.1,45.5,247.1,45.5z"/>
		</g>
		<g>
			<path class="st1" d="M250.2,39.4c-0.1,0-0.2-0.1-0.2-0.2c-0.1-1.7,0.9-3.3,0.9-3.4c0.1-0.1,0.2-0.1,0.3-0.1
				c0.1,0.1,0.1,0.2,0.1,0.3c0,0-0.9,1.5-0.8,3.1C250.4,39.3,250.3,39.4,250.2,39.4L250.2,39.4z"/>
		</g>
		<path class="st1" d="M262.3,53c0,0-1.8,9.6-3.1,12.8s0.3,3.9,0.3,3.9s6.1-0.1,9.7,3.2c3.6,3.3,5.9,9.4,5.9,9.4s7.8-2.9,14.6-0.7
			c6.8,2.2,8.8,5.2,11.5,5.4c0,0-11.9,7.3-17.6,8.5c-5.6,1.2-11.4-2.8-11.4-2.8S254,93.5,248,86.1c-6-7.3-4.9-11.3-4.9-11.3
			s-14.5-7.8-2.5-21.1C245.4,48.5,262.3,53,262.3,53z"/>
		<path class="st8" d="M238.7,39.6c0,0,1.9-3.6,5.9-5.5c4-1.8,6-2.2,6-2.2l14.7,9.2c0,0,2.4-9,3.6-12c1.2-2.9,3.9-16.3,0.1-21.8
			c-3.8-5.6-25.1-8-31.5-2.9s0,28.1,0.1,30C237.6,36.4,238.7,39.6,238.7,39.6z"/>
		<g>
			<path class="st4" d="M294.1,100.1c-0.1,0-0.2-0.1-0.2-0.1c0-0.1,0-0.2,0.1-0.3c0.1,0,7-2.5,14.9-4.4c10.6-2.6,17.8-3.1,21.5-1.5
				c1.7,0.8,2.5,1.4,2.4,2c-0.2,1.2-4.5,1.5-11.4,1.9c-3.5,0.2-7,0.4-9.8,0.7c-9,1.3-11.6,1.8-11.6,1.8c-0.1,0-0.2-0.1-0.3-0.2
				c0-0.1,0.1-0.2,0.2-0.3c0,0,2.6-0.5,11.7-1.8c2.8-0.4,6.4-0.6,9.8-0.8c4.8-0.2,10.8-0.6,11-1.5c0-0.1-0.1-0.6-2.1-1.5
				C321.7,90.5,294.4,100,294.1,100.1L294.1,100.1z"/>
		</g>
		<g>
			<path class="st4" d="M295.8,96.7c-0.1,0-0.2-0.1-0.2-0.1c0-0.1,0-0.2,0.1-0.3c0.7-0.3,16.8-6.7,21-5.9c0.1,0,0.2,0.1,0.2,0.3
				c0,0.1-0.1,0.2-0.3,0.2C312.6,90,296.1,96.6,295.8,96.7C295.9,96.7,295.9,96.7,295.8,96.7z"/>
		</g>
		<g>
			<path class="st4" d="M210.7,101.3L210.7,101.3c-0.3,0-28.9-3.8-34.1-1.4c-2.2,1-4,0.6-4.9-0.2c-0.5-0.5-0.7-1.1-0.5-1.8
				c0.2-0.6,1.3-2.1,5.8-2.3c7.7-0.4,25.4,2.4,30.1,3.2c-3.9-2.2-18.2-9.9-27.7-8.1c-0.1,0-0.2-0.1-0.3-0.2c0-0.1,0.1-0.2,0.2-0.3
				c11.2-2.1,28.8,8.7,29,8.8l1,0.6l-1.1-0.2c-0.2,0-22.3-3.8-31.2-3.4c-4.4,0.2-5.2,1.6-5.4,2.1s0,0.9,0.4,1.3
				c0.8,0.7,2.4,1,4.4,0.1c2.2-1,8.7-1.1,19.2-0.2c7.8,0.6,15,1.6,15.1,1.6s0.2,0.1,0.2,0.2C210.9,101.2,210.8,101.3,210.7,101.3z"
				/>
		</g>
		<g>
			<path class="st4" d="M214.6,150.3c-3.2,0-7.7-1.4-13.1-4.1c-0.1-0.1-0.1-0.2-0.1-0.3c0.1-0.1,0.2-0.1,0.3-0.1
				c7.9,4.1,14.2,5.2,16.5,2.9s6.9-23.7,6.9-23.9c0-0.1,0.1-0.2,0.3-0.2c0.1,0,0.2,0.1,0.2,0.3c-0.2,0.9-4.6,21.7-7,24.1
				C217.7,149.9,216.4,150.3,214.6,150.3z"/>
		</g>
		<g>
			<path class="st4" d="M291.9,151c-0.5,0-1.1-0.1-1.7-0.4c-1.5-0.7-3.7-2.9-5.4-8.7c-2.8-9.6-3.9-17.8-3.9-17.9s0.1-0.2,0.2-0.2
				s0.2,0.1,0.2,0.2s1.1,8.2,3.9,17.8c1.7,5.7,3.7,7.7,5.2,8.5c1.3,0.6,2.3,0.3,2.4,0.2c0.9-0.4,7.5-2.6,7.7-2.7
				c0.1,0,0.2,0,0.3,0.1c0,0.1,0,0.2-0.1,0.3c-0.1,0-6.9,2.4-7.7,2.7C292.8,150.9,292.4,151,291.9,151z"/>
		</g>
		<path class="st5" d="M242.9,138.4c0,0-3.1-6.1-5.6-5.5c-2.4,0.6-3.6,2.4-1.3,4.5c2.3,2,5.5,4.9,6.9,3.7
			C244.2,139.9,242.9,138.4,242.9,138.4z"/>
		<g>
			<path class="st4" d="M267.8,235.7c-3.6,0-7.4-0.2-11.7-0.6c-11.2-0.8-12.8-3.2-15.5-7.2c-1.1-1.7-2.4-3.6-4.7-5.8
				c-6.2-5.9-8.5-6.6-18.2-9.7c-2.4-0.8-5.5-1.7-9.1-2.9c-17.8-5.9-38.9-0.1-39.1,0c-0.1,0-0.2,0-0.3-0.1c0-0.1,0-0.2,0.1-0.3
				c0.2-0.1,21.4-6,39.3,0c3.6,1.2,6.7,2.2,9.1,2.9c9.8,3.1,12.2,3.8,18.4,9.8c2.3,2.2,3.6,4.2,4.8,5.9c2.6,3.9,4.2,6.2,15.1,7
				c16.2,1.2,24.8,1.3,43-8.3c18.3-9.7,29.3-23.7,29.4-23.9c0.1-0.1,0.2-0.1,0.3,0c0.1,0.1,0.1,0.2,0,0.3s-11.1,14.2-29.5,24
				C285.9,233.9,277.7,235.7,267.8,235.7z"/>
		</g>
		<g>
			<path class="st9" d="M277,138.8c0,0-4.5-13-3.6-13.6s1.2-1.5,2.7-0.3s3.6,12.6,3.2,13C278.9,138.3,277,138.8,277,138.8z"/>
			<path class="st9" d="M284.1,153.5c0,0-1.4,14.6,0.6,21.3c2,6.8,14.6,15.8,18.9,13.8s-0.7-17.6-2.1-20.8S289.4,154.4,284.1,153.5z
				"/>
			<path class="st10" d="M300.5,174.3c-0.5-2.9-1.9-5.6-4-7.8c-3.5-3.7-8.8-9.2-9.9-8.6c-1.5,0.8,1.1,16.4,3.3,19.4
				c2.2,3,9.5,8.3,11.1,7C302,183.6,301.3,178.3,300.5,174.3z"/>
			<path class="st9" d="M285.8,157.4c0,0-2.8-0.2-4.3-1.7c-1.6-1.5-2.7-6.6-2.1-7.5s4.2-2.7,5.3-1.6c1.1,1,3.5,6.9,3.3,8.1
				C287.8,155.8,287.3,157,285.8,157.4z"/>
			<path class="st9" d="M280.9,148.2c0,0-2.7-0.5-4.1-2.2s-1.8-6.8-1.2-7.7c0.7-0.9,4.5-2.1,5.5-1c1,1.2,2.6,7.3,2.3,8.4
				C283.1,146.9,282.4,148.1,280.9,148.2z"/>
		</g>
		<g>
			<path class="st1" d="M387.2,219.3c-0.1,0-0.2-0.1-0.2-0.1c-0.1-0.2-6.8-15.7-25.5-25.9c-5.1-2.8-8.9-4.7-11.9-6.2
				c-8.1-4-10-5-15.3-12.6c-0.1-0.1,0-0.2,0.1-0.3s0.2,0,0.3,0.1c5.1,7.5,7.1,8.5,15.1,12.5c3,1.5,6.8,3.4,11.9,6.2
				c9.8,5.4,16.3,12.2,20,17c4,5.2,5.7,9.1,5.7,9.2C387.4,219.1,387.4,219.2,387.2,219.3C387.3,219.3,387.2,219.3,387.2,219.3z"/>
		</g>
		<g>
			<path class="st1" d="M342.4,238.6h-0.1c-0.1-0.1-0.1-0.2-0.1-0.3c0.1-0.1,5.2-7.7,0-25.9c-3.7-12.9-5.3-15.8-7.7-20.2
				c-1-1.9-2.2-4.1-3.8-7.5c-0.1-0.1,0-0.2,0.1-0.3s0.2,0,0.3,0.1c1.6,3.4,2.7,5.5,3.8,7.4c2.4,4.4,4,7.4,7.7,20.3
				c1.5,5.3,3.1,13.1,2,20.1c-0.7,4.2-2,6.1-2,6.2C342.5,238.5,342.5,238.6,342.4,238.6z"/>
		</g>
		<g>
			<path class="st1" d="M267.2,33h-0.1c-0.1-0.1-8.1-5.8-10.9-7.6c-3-1.9-6.9-1.3-9.3-0.3c-2.6,1.1-10,3.2-10.1,3.2s-0.2,0-0.3-0.2
				c0-0.1,0-0.2,0.2-0.3c0.1,0,7.5-2,10-3.2c2.5-1.1,6.5-1.6,9.7,0.3c2.9,1.8,10.9,7.5,11,7.6s0.1,0.2,0.1,0.3
				C267.3,32.9,267.3,33,267.2,33z"/>
		</g>
		<g>
			<path class="st1" d="M269.6,22.6L269.6,22.6c-0.2-0.1-16-4.3-19-4.9c-3-0.6-14.4,4.3-14.5,4.3s-0.2,0-0.3-0.1
				c0-0.1,0-0.2,0.1-0.3c0.5-0.2,11.6-5,14.8-4.4c3.1,0.6,18.8,4.9,19,4.9c0.1,0,0.2,0.2,0.2,0.3C269.8,22.5,269.7,22.6,269.6,22.6z
				"/>
		</g>
		<g>
			<path class="st1" d="M236,13.3c-0.1,0-0.2,0-0.2-0.1s0-0.2,0.1-0.3c0.1,0,7.6-3.4,14.4-3.4c0.1,0,0.2,0,0.4,0
				c1.6,0,2.9,0.1,4,0.1c3.5,0.1,4.7,0.1,7.4-0.5c3.6-0.8,7.4-1.1,7.5-1.1s0.2,0.1,0.2,0.2c0,0.1-0.1,0.2-0.2,0.2c0,0-3.8,0.2-7.4,1
				c-2.8,0.6-4,0.6-7.5,0.5c-1.1,0-2.4-0.1-4-0.1C243.8,9.8,236.1,13.3,236,13.3L236,13.3z"/>
		</g>
		<g>
			<path class="st1" d="M270.4,17.6c-0.1,0-0.1,0-0.2-0.1c-1-1.2-11.7-5.5-17.2-7.6c-0.1,0-0.2-0.2-0.1-0.3c0-0.1,0.2-0.2,0.3-0.1
				c0.7,0.2,16,6,17.4,7.7c0.1,0.1,0.1,0.2,0,0.3C270.5,17.6,270.5,17.6,270.4,17.6z"/>
		</g>
		<path class="st9" d="M265.3,41.2c0,0,0.5-1.7,1.1-3.9L253.7,30c0,0,1.1-6,0.6-8.9s-3.7-6.7-3.7-6.7s-3.5,2.8-4.7,7.3
			c-0.9,3.2,0.9,8.6,0.9,8.6l-9.2,4.9c0.2,1.9,1.2,4.5,1.2,4.5s1.9-3.6,5.9-5.5c4-1.8,6-2.2,6-2.2L265.3,41.2z"/>
		<path class="st11" d="M250.2,30.6c0,0-2.9-3.8-2.4-7.1c0.5-3.4,2.5-6.4,2.5-6.4s2.3,2.9,2.4,6.5C252.8,27.1,250.2,30.6,250.2,30.6
			z"/>
		<g>
			<path class="st1" d="M238.5,308.2h-0.1c-0.1-0.1-9.5-5.5-18.5-14.1c-9.3-8.9-28.2-35.2-28.3-35.4c-0.1-0.1,0-0.2,0.1-0.3
				c0.1-0.1,0.2,0,0.3,0.1c0.2,0.3,19.1,26.5,28.2,35.3c9,8.6,18.4,14,18.5,14c0.1,0.1,0.1,0.2,0.1,0.3
				C238.7,308.2,238.6,308.2,238.5,308.2z"/>
		</g>
		<g>
			<path class="st1" d="M235.7,298.4c-0.1,0-0.2,0-0.2-0.1c-0.5-1.1-11.8-26.4-12.2-27.5c0-0.1,0-0.2,0.1-0.3c0.1,0,0.2,0,0.3,0.1
				c0.4,1.1,12.1,27.2,12.2,27.4C236,298.2,235.9,298.3,235.7,298.4C235.8,298.4,235.8,298.4,235.7,298.4z"/>
		</g>
		<g>
			<path class="st1" d="M259.2,278.3c-0.1,0-0.1,0-0.2,0s-0.2-0.1-0.2-0.2s0.1-0.2,0.2-0.2l0,0c0.1,0,0.1,0,0.2,0
				c11.2,0,29.9-9,30.6-9.8c0.1-0.1,0.2-0.1,0.3,0c0.1,0.1,0.1,0.2,0,0.3c-0.4,0.5-5.5,3-11.6,5.4
				C273,275.8,265.2,278.3,259.2,278.3z"/>
		</g>
		<g>
			<path class="st1" d="M256,272.2L256,272.2c-0.1,0-0.2-0.1-0.2-0.2c0.2-3,2.1-6.8,5.6-11.4c2.6-3.4,5.3-6,5.3-6
				c0.1-0.1,0.2-0.1,0.3,0c0.1,0.1,0.1,0.2,0,0.3s-10.4,10.2-10.8,17.1C256.2,272.1,256.1,272.2,256,272.2z"/>
		</g>
	</g>
</g>
</svg>
