<?xml version="1.0" encoding="utf-8"?>
<!-- Generator: Adobe Illustrator 25.2.0, SVG Export Plug-In . SVG Version: 6.00 Build 0)  -->
<svg version="1.1" id="Layer_1" xmlns="http://www.w3.org/2000/svg" xmlns:xlink="http://www.w3.org/1999/xlink" x="0px" y="0px"
	 viewBox="0 0 626.6 831" style="enable-background:new 0 0 626.6 831;" xml:space="preserve">
<style type="text/css">
	.st0{fill:#2E2E47;}
	.st1{fill:#946255;}
	.st2{fill:#6A10C4;}
	.st3{opacity:0.1;fill:#2E2E47;}
	.st4{fill:#FFE2BD;}
	.st5{fill:#FFFFFF;}
	.st6{fill:#8B48D8;}
	.st7{fill:#82A7AF;}
	.st8{fill:#9C6F43;}
	.st9{fill:#3ECC6D;}
	.st10{fill:#C96B59;}
	.st11{fill:#C3EAE7;}
</style>
<g>
	<g>
		<g>
			<path class="st0" d="M212.9,288.1c-0.1,0-0.3,0-0.3-0.1c-0.2-0.2-22.4-20.8-38.4-21.8c-0.3,0-0.5-0.3-0.5-0.5
				c0-0.3,0.3-0.5,0.5-0.5c6.9,0.4,15.6,4.3,25.8,11.5c7.6,5.3,13.2,10.6,13.3,10.6c0.2,0.2,0.2,0.5,0,0.7
				C213.2,288,213,288.1,212.9,288.1z"/>
		</g>
		<g>
			<path class="st0" d="M209.3,291.9c-0.1,0-0.2,0-0.3-0.1c-0.1-0.1-8.8-6.3-18.5-11.7c-12.6-7.1-21.1-9.8-24.5-7.6
				c-1.2,0.7-1.1,1.4-1,1.6c0.7,4.5,22.1,11.4,30.4,13.7c0.3,0.1,0.4,0.4,0.4,0.6c-0.1,0.3-0.4,0.4-0.6,0.4
				c-3.1-0.9-30.2-8.6-31.1-14.5c-0.1-1,0.4-1.9,1.5-2.6c8.9-5.7,42.6,18.4,44.1,19.4c0.2,0.2,0.3,0.5,0.1,0.7
				C209.7,291.8,209.5,291.9,209.3,291.9z"/>
		</g>
		<g>
			<path class="st0" d="M207.7,278.4c-0.1,0-0.3-0.1-0.4-0.2c-0.1-0.2-12.8-15.3-23.8-16.3c-0.3,0-0.5-0.3-0.5-0.6s0.3-0.5,0.6-0.5
				c4.8,0.5,10.4,3.4,16.6,8.8c4.6,4,7.9,7.9,7.9,7.9c0.2,0.2,0.2,0.5-0.1,0.7C208,278.4,207.9,278.4,207.7,278.4z"/>
		</g>
	</g>
	<g>
		<path class="st1" d="M343.5,154.8c0,0,4.8-28.5,35.9-28c31.1,0.5,56.2,7.4,61.7,17c5.5,9.6,39.5,131.7,14.1,158.8
			c-25.4,27.2-96.6,20.3-109.7-5.2C332.5,272.1,343.5,154.8,343.5,154.8z"/>
		<path class="st2" d="M326.3,126.5c0,0-7.5-10.8-16.2-12.5c-8.8-1.6-32.6-4.8-44.4,11.5C253.7,141.8,326.8,133.2,326.3,126.5z"/>
		<ellipse class="st3" cx="348.7" cy="794.5" rx="221" ry="20.1"/>
		<g>
			<path class="st4" d="M258.5,764c1.7,3.5-6.7,8.1-2.3,9.5c4.4,1.4,10.3,0.4,14.1-2.9c3.8-3.4,8.6-8.9,14.2-5.9c0,0,0,0,0,0
				c-0.9-3.3,3.3-23.6,3.8-25.7c0.6-2.6-36-1.6-36.7,0v22.1C251.6,761.1,256.8,760.6,258.5,764z"/>
			<g>
				<path class="st0" d="M215,792.4c7.3,5.5,14-3.3,19.2-2c5.3,1.3,8.4-3.2,13.6-0.3c5.2,2.9,2,4.3,6.6,3.3c4.5-1,23.6-20.5,35-12.1
					c-0.9-2.5-3.4-13.9-4.4-15.3c-0.2-0.2-0.3-0.7-0.5-1.3c0,0,0,0,0,0c-5.6-3-10.4,2.5-14.2,5.9c-3.8,3.4-9.7,4.3-14.1,2.9
					c-4.4-1.4,4-6,2.3-9.5c-1.7-3.5-6.9-3-6.9-3s-2.8-0.3-6.1,3.6c-3.2,3.8-9.2,5.6-11.3,5.7c-2.1,0.1-23.4,9.8-23.4,9.8
					S207.7,786.9,215,792.4z"/>
				<path class="st5" d="M289.4,781.2c-11.4-8.3-30.4,11.1-35,12.1c-4.5,1-1.3-0.3-6.6-3.3c-5.2-2.9-8.4,1.6-13.6,0.3
					c-5.3-1.3-12,7.5-19.2,2c-7.3-5.5-4.1-12.2-4.1-12.2s-2.3-4.5-9.1-2.3c-6.8,2.2-12.1,6.9-8.6,14.5s20.3,11.5,29.1,12.6
					c8.8,1.1,11.3-2.3,11.3-2.3s1.1-5.4,4.4-2.5c3.3,2.9,2.2,4.2,2.2,4.2l16.7,0.4c0,0,2.2-8.5,5.7-6.5c3.5,2-1.2,6.8,3.8,8.7
					c5,1.9,29.1-3.9,30.1-9.8C297.6,791.2,290.3,783.7,289.4,781.2z"/>
			</g>
		</g>
		<g>
			<path class="st4" d="M421.4,745.8c-0.5-2.8,20.5-3.1,21.4,0.5c0,0,1.6,6.9,3,10.2c0.3,0.8,0.9,1.8,1.7,2.9
				c-0.7,3.4-1.7,7.9-2.3,7.2c-0.9-1.1,3.6-5.2-1.9-7.1c-5.5-1.9-15.1-1.1-16.6,1.4c-1.5,2.6,0.2,6.8-1.3,6.8
				c-0.9,0-4.9-3.3-7.7-5.7c0.2-0.6,0.4-0.9,0.4-0.9S421.8,748.6,421.4,745.8z"/>
			<g>
				<path class="st5" d="M431.8,801.6c6.5-0.2,8.4-7.1,15.4-7.5c7-0.4,8.5,6.1,11.6,1.2c3.2-4.9,1.5-9.2,1.5-9.2s5.3-1,5.9,3
					c0.6,4,1.5,13.7-5.5,18.6c-7,4.9-16.9,8.5-25.4,6.4c-8.5-2.2-19.6-6.4-22.2-11.3c-2.6-4.9,1.3-15.9,1.3-15.9
					C420.7,797.1,425.3,801.8,431.8,801.6z"/>
				<path class="st0" d="M417.8,762c2.8,2.4,6.7,5.7,7.7,5.7c1.5,0-0.2-4.2,1.3-6.8c1.5-2.6,11.2-3.4,16.6-1.4
					c5.5,1.9,1,6.1,1.9,7.1c0.5,0.7,1.6-3.8,2.3-7.2c2.3,3.4,5.9,8.1,7.7,12.3c2.4,5.5,5.2,14.4,5.2,14.4s1.6,4.4-1.5,9.2
					c-3.2,4.9-4.6-1.6-11.6-1.2c-7,0.4-8.9,7.3-15.4,7.5c-6.5,0.2-11.1-4.5-17.3-14.7c0,0,1.2-11.8,1-15.4
					C415.4,768.7,417,764,417.8,762z"/>
			</g>
		</g>
		<path class="st2" d="M241.1,137.8c0,0-96,65.6-116.1,109.5c-21.2,46.3-12,85.2,6.9,110.1s23.2,2.6,33.9-1.3
			c10.7-3.9,14.7-78.8,14.7-78.8S233.8,186,241.1,137.8z"/>
		<g>
			<path class="st6" d="M181.6,185.7l11.6,1.7c2,0.3,3.8-1.1,4.1-3c0.3-2-1.1-3.8-3-4.1l-7.3-1.1c-2.3,1.9-4.6,3.9-6.9,5.9
				C180.5,185.4,181,185.6,181.6,185.7z"/>
			<path class="st6" d="M156.1,230.6c1.5,1.3,3.8,1.2,5.1-0.3l7.8-8.7c1.3-1.5,1.2-3.8-0.3-5.1c-1.5-1.3-3.8-1.2-5.1,0.3l-7.8,8.7
				C154.4,227,154.6,229.3,156.1,230.6z"/>
			<path class="st6" d="M166.5,271.5l-11.7,0.6c-2,0.1-3.5,1.8-3.4,3.8c0.1,2,1.8,3.5,3.8,3.4l11.7-0.6c2-0.1,3.5-1.8,3.4-3.8
				C170.2,273,168.5,271.4,166.5,271.5z"/>
			<path class="st6" d="M119.3,305.3c0.6-1.9-0.6-3.9-2.5-4.5l-3.9-1.1c0,2.6,0.1,5.1,0.3,7.6l1.7,0.5
				C116.8,308.3,118.8,307.2,119.3,305.3z"/>
		</g>
		<path class="st7" d="M175.3,380l220.6,2.4l31.7,182.2c0,0,7,20.5,8.5,27.5c3.2,15.2,7,61.6,7,61.6l16.8,96.2
			c0,0-19.4,5.1-24.8,5.9c-25.5,3.7-41.3,1.3-41.3,1.3s-3.4-9.6-7.2-19.5c-0.6-1.5,4.5-3.1,3.8-4.7c-13-33.3-38.1-97.5-48.2-121.6
			c-3.1-7.4-52.4-131.4-52.4-131.4l8.9,248.1l5.7,3.8l0.3,19.3c0,0-14.7,6.1-36.1,6.1c-27.6,0-37.5-4.1-37.5-4.1s-0.1-5.4-2.4-17.5
			c-0.3-1.5,2.8-5.5,2.5-7.2C216.2,651.4,171,412.7,175.3,380z"/>
		<path class="st0" d="M348.4,156.1c-25.1-38-69.4-38.3-96.1-25.8c-28.1,13.2-43.3,62.6-43.3,62.6s-28.4,51.6-35.1,106.6
			c-6.6,54.9,1.4,80.6,1.4,80.6s39.6,8.7,108.3,8.7c28.1,0,112.3-6.3,112.3-6.3s-9.7-45.1-17.3-98.7
			C372.2,239,369.2,187.6,348.4,156.1z"/>
		<g>
			<path class="st5" d="M389.8,351.8c-6.1,0.1-11.2,0-14.1-0.4c-6.6-0.9-16.5,0.1-28,1.2c-11.7,1.1-24.9,2.4-38.5,2.2
				c-20.1-0.2-32.8-1.3-53.8-3.2c-7.4-0.7-15.8-1.4-26-2.2c-22.4-1.8-43.9-1.5-58.1-1c0,1.4,0.1,2.8,0.2,4.1c14-0.6,35.4-0.8,57.6,1
				c10.1,0.8,18.5,1.6,25.9,2.2c21.1,1.9,33.8,3,54.1,3.2c0.8,0,1.5,0,2.3,0c13,0,25.5-1.2,36.6-2.2c11.3-1.1,21-2,27.1-1.2
				c3.1,0.4,8.7,0.5,15.4,0.4C390.3,354.5,390,353.1,389.8,351.8z"/>
			<path class="st5" d="M217.4,171.9c-0.7,1.4-1.3,2.8-1.9,4.1c8.8,0,16.4,1.4,23.7,2.8c6.2,1.2,12.1,2.3,18.3,2.5
				c5.6,0.1,13.1,0.4,21.1,0.7c12.6,0.5,26.8,1,37.1,1c0.1,0,0.1,0,0.2,0c1.1,0,2.2,0,3.5,0c9.3,0,24.8-0.1,38.2,0.6
				c1.2,0.1,2.4,0.1,3.5,0.2c-0.5-1.4-0.9-2.8-1.4-4.2c-10-0.5-23.2-0.7-40.3-0.7c-1.3,0-2.5,0-3.5,0c-0.1,0-0.1,0-0.2,0
				c-10.2,0-24.4-0.5-37-1c-8-0.3-15.6-0.6-21.2-0.7c-5.8-0.1-11.6-1.2-17.6-2.4C233.3,173.5,225.9,172,217.4,171.9z"/>
			<path class="st5" d="M221.6,289.6c11.2,0,24.7,1.9,38.9,3.9c5.7,0.8,11.6,1.7,17.7,2.4c14.7,1.9,25.4,1.4,38.8,0.8
				c6.4-0.3,13.6-0.6,22.1-0.7c9.9-0.1,25.6,0.2,41.3,0.6c-0.2-1.4-0.4-2.7-0.6-4.1c-15.4-0.4-30.9-0.7-40.7-0.5
				c-8.6,0.1-15.8,0.4-22.2,0.7c-13.3,0.6-23.8,1.1-38.1-0.7c-6-0.8-11.9-1.6-17.6-2.4c-14.4-2.1-28-4-39.5-4
				c-15.9,0.1-24.5-0.2-41.4-1.6c-1.1-0.1-2.4-0.2-3.8-0.3c-0.3,1.3-0.5,2.7-0.7,4c1.4,0.1,2.8,0.3,4.2,0.4
				C196.9,289.5,205.6,289.7,221.6,289.6z"/>
			<path class="st5" d="M217,236.1c17.9,1.7,36.5,3.4,47.2,3.8c11.6,0.5,20,1.2,27.5,1.8c8.7,0.7,16.2,1.3,25.8,1.3
				c8.1,0,14,1.1,20.3,2.3c6.9,1.3,14.8,2.8,27,3c3,0,6.2,0.1,9.3,0.1c-0.2-1.4-0.4-2.7-0.5-4.1c-2.9,0-5.8-0.1-8.7-0.1
				c-11.9-0.2-19.2-1.6-26.3-2.9c-6.4-1.2-12.5-2.4-21-2.4c-9.4,0-16.8-0.6-25.4-1.3c-7.5-0.6-16-1.3-27.6-1.8
				c-10.6-0.4-29.1-2.2-47-3.8c-8.8-0.8-17.3-1.6-25.1-2.3c-0.5,1.3-1,2.6-1.5,4C199,234.4,208.1,235.3,217,236.1z"/>
		</g>
		<path class="st8" d="M228.1,388.8v13.1l-49.7-3.1c0,0-2.4-10-0.7-14.8C177.7,384,198.9,389.2,228.1,388.8z"/>
		<path class="st2" d="M273.9,125.6c0,0-6.6,8.7-13.2,22.9c-6.7,14.2-53.7,184.9-55.2,217.6s1.9,40.5-3.8,39.7
			c-5.7-0.8-40.8-3.5-43.4-17.1c-2.6-13.6,10.4-98.2,12.2-114c1.8-15.8,27.1-73.6,30.9-83.1c3.9-9.5,24-44.4,38.2-55.7
			c14.2-11.3,34.5-15.5,36.7-14.7C278.6,122,273.9,125.6,273.9,125.6z"/>
		<path class="st8" d="M393.1,384l2.7,11c0,0-47.6,7.2-89.8,6.9l-2-11.7C304,390.2,362.4,388.8,393.1,384z"/>
		<path class="st4" d="M270.6,136.3c-4.4-1.3,0.8-7.5,3.5-12.9c3-6.2,4.1-11.7,6.1-14.1c3.9-4.4,23.2-10.7,23.2-10.7
			s1.7,17.2,7.9,31.1C306.3,138.6,282.8,139.9,270.6,136.3z"/>
		<g>
			<path class="st4" d="M265.8,67.5c0,0-3.4-2-5.5-0.3c-2.1,1.7-2.4,12,0.6,12.5C263.9,80.3,268.9,70.5,265.8,67.5z"/>
			<path class="st4" d="M309,74.1c0.9,0.8,2.5,1,4.6,2c3.7,1.7,2.4,7.3,0.5,10.6c-1.9,3.4-7.7,4-7.7,4s-0.2-5.4,0-6.8
				C307,75.3,308.6,76.3,309,74.1z"/>
			<path class="st4" d="M303.2,79.3c-1.2,4.8-2.3,12.6-5.6,15.6c-3.3,3-3.7,4.1-5.3,2.2c-1.6-1.9-33.6-6.8-35.4-10
				c1.2-5.1,2.8-10,3.7-13c1.6-5.6,1-16,7.8-24.1c6.9-8,28.9-7,36.1,0.9c7.2,7.9,3.8,19.6,3.8,19.6c-0.2,1.1-0.2,1.8,0,2.4
				C306.7,74,304,76,303.2,79.3z"/>
			<path class="st9" d="M258.1,84.8c3.6-0.5,5.7,3.4,9.2,3.4c6.2,0,14.6,0,19.2,2.1c4.6,2.2,4.3,5,5.9,6.9c1.6,1.9,2,0.8,5.3-2.2
				c3.3-3,4.4-10.9,5.6-15.6c0.8-3.3,3.5-5.3,5.2-6.3c0.1,0.5,0.3,0.8,0.6,1.1c-0.6,2.9-1.6,9.3-1.7,10.9c-0.2,2.4,0,3.7,0.4,4.4
				c0.7,1.3,0.9,2.8,0.4,4.2c-1.2,3.3-2.2,18.2-6.9,22.6c-6.8,6.3-16.6,8.9-29.4,6.8c-12.8-2.2-18.3-14.1-18.7-22.5
				C252.9,96.5,253.5,85.4,258.1,84.8z"/>
			<path class="st4" d="M277.8,93.1c1.1,0.3,2.3,0.5,3.5,0.5c2.3,0.1,6,0.4,5.8,2.1c-0.2,2.4-5,8.8-7.2,7.9
				c-2.2-0.9-1.9-3.4-3.1-4.1c-1.1-0.6-4.9-1.4-6.4,0.3c-1.6,1.7-3,3.1-3.9,1.4c-0.8-1.7-1.7-8.8,0-9.7
				C267.9,90.7,274.5,92.1,277.8,93.1z"/>
			<path class="st9" d="M268.6,47.8c8.8-5.9,28.7-4.6,36,3.3c7.2,7.9,8.4,19,8.4,19c-0.2,1.1,0.5,5.4,0.6,6
				c-1.7-0.8-8.1-1.2-9.2,0.6c-0.7-2.6-1.3-7.4-1.7-10.1c-0.6-3.8-4.6-11.7-12-10.2c0,0-15.4,0.4-19.9-4.2c-0.8-0.8-4,3.6-5.9,3.6
				C265.8,53.9,265.7,49.7,268.6,47.8z"/>
			<path class="st5" d="M268.2,92.6c7.4,3.2,13.5,1.9,13.5,1.9s0.9,4.8-6.6,4.2C267.6,97.9,268.2,92.6,268.2,92.6z"/>
			<path class="st4" d="M273.5,82.7c0,0-4.9,3.6-4,6.5c1,2.9,6.2,3.4,9.3,1.9C282,89.6,279.7,79.9,273.5,82.7z"/>
			<g>
				<path class="st0" d="M270.1,85.2c-0.2,0-0.4-0.1-0.5-0.3c-0.1-0.3,0-0.6,0.3-0.7c0.2-0.1,4.6-2,4.3-8c-0.3-5.9-1.6-9.1-4.1-9.4
					c-3.8-0.5-6.6,1.2-6.6,1.2c-0.2,0.2-0.6,0.1-0.7-0.2c-0.2-0.2-0.1-0.6,0.2-0.7c0.1-0.1,3.1-2,7.3-1.4c3,0.4,4.7,3.8,5,10.4
					c0.3,6.7-4.9,8.9-5,9C270.3,85.2,270.2,85.2,270.1,85.2z"/>
			</g>
			<g>
				<path class="st0" d="M294.6,73.8c-0.1,0-0.1,0-0.2,0c-0.1,0-6-2.7-9.9-2.4c-0.3,0-0.5-0.2-0.5-0.5c0-0.3,0.2-0.5,0.5-0.5
					c4.2-0.3,10.2,2.3,10.4,2.4c0.3,0.1,0.4,0.4,0.3,0.7C295,73.6,294.8,73.8,294.6,73.8z"/>
			</g>
			<path class="st0" d="M268.6,47.8c0,0,10.5-1.1,27.1,6.2c16.6,7.3,17.3,16.1,17.3,16.1s4.9-3.7,5-9.2c0.1-5.5-2.7-10.1-2.7-10.1
				s4.3-10.9-4.5-15.6c-6.9-3.7-22.1,0.2-28.3,2c-1.5,0.4-3,0.7-4.5,0.9C275.2,38.4,270.1,40,268.6,47.8z"/>
			<g>
				<path class="st0" d="M292.7,78.7c-0.2,0-0.4-0.1-0.4-0.3c0,0-1.2-1.8-6.3-2.2l-1.6,0c-0.3,0-0.5-0.2-0.5-0.5
					c0-0.3,0.2-0.5,0.5-0.5c0,0,0,0,0,0l1.6,0c5.7,0.5,7,2.5,7.1,2.7c0.1,0.2,0,0.6-0.2,0.7C292.8,78.7,292.8,78.7,292.7,78.7z"/>
			</g>
			<path class="st0" d="M291.8,77.4c0,0,0.7,3.5-2.3,3.6c-3,0.1-3.1-2.9-2.9-3.9S289.8,75.5,291.8,77.4z"/>
			<g>
				<path class="st0" d="M271.2,74.1c-0.1,0-0.3-0.1-0.4-0.2c0,0-1.3-1.4-5.2-0.6l-1.2,0.4c-0.3,0.1-0.6-0.1-0.6-0.3
					c-0.1-0.3,0.1-0.6,0.3-0.6l1.3-0.4c4.7-1,6.2,0.8,6.3,0.9c0.2,0.2,0.1,0.5-0.1,0.7C271.4,74.1,271.3,74.1,271.2,74.1z"/>
			</g>
			<path class="st0" d="M270.3,73.5c0,0,1,3.3-1.4,3.9c-2.4,0.5-2.8-2.4-2.8-3.5C266.2,72.8,268.5,71.9,270.3,73.5z"/>
			<path class="st9" d="M260.7,74c0,0-1.8,8.4-0.9,12.4c0.9,4-5.3,5.1-5.3,3.9C254.4,89,255.9,76.2,260.7,74z"/>
		</g>
		<path class="st8" d="M297.1,390.6l1.6,12.6c0,0-36.9,1.8-64.7-1.4l-0.7-13.1C233.2,388.8,258.9,392.9,297.1,390.6z"/>
		<path class="st2" d="M308,120.7c0,0,2.1,26.6,1.1,46.8c-1,20.3-17.3,197-5,236.2c0,0,61.4,4.8,81.7,0c11.9-2.8,23.2-6.1,30.5-8.2
			c4.7-1.4,7.5-6.2,6.3-11c-6.7-28-28.1-116.8-30.7-128.7c-3.1-14.1-26.7-104.8-39.8-118S327.4,121.7,308,120.7z"/>
		<path class="st4" d="M353.2,349.6c0,0-11-14-21.6-19.7c-3.1-1.6-24.7-0.3-25.3,1.9c-0.6,2.2,7.4,4.2,7.4,4.2s-11,1-11.3,2.2
			c-0.3,1.2,2.8,3,2.8,3s-3.4,1-3,2.6c0.4,1.6,18.7,5.8,19.4,6.6c0.7,0.8-4.4-0.1-5.8,0c-1.3,0-5.3-1.1-5.9,1.1
			c-0.6,2.2,14.8,4.9,17.8,6.5c3.1,1.5,3.5,7.9,12.8,11.9c6.2,2.7,17.8,0.5,20.9-7.5C364.6,354.2,353.2,349.6,353.2,349.6z"/>
		<g>
			<path class="st6" d="M319.9,297.9c0.8,1.8,2.9,2.7,4.8,1.9c1.8-0.8,2.7-2.9,1.9-4.8l-4.7-10.7c-0.8-1.8-2.9-2.7-4.8-1.9
				c-1.8,0.8-2.7,2.9-1.9,4.8L319.9,297.9z"/>
			<path class="st6" d="M369.3,262.5l-10.2,5.7c-1.7,1-2.3,3.2-1.4,4.9c1,1.7,3.2,2.3,4.9,1.4l10.2-5.7c1.7-1,2.3-3.2,1.4-4.9
				C373.2,262.2,371,261.6,369.3,262.5z"/>
			<path class="st6" d="M330.2,222.2c-2-0.2-3.7,1.3-3.9,3.3l-1,11.7c-0.2,2,1.3,3.7,3.3,3.9c2,0.2,3.7-1.3,3.9-3.3l1-11.7
				C333.7,224.1,332.2,222.3,330.2,222.2z"/>
			<path class="st6" d="M315.7,198.1c1.9,0.6,3.9-0.4,4.6-2.3c0.6-1.9-0.4-3.9-2.3-4.6l-10.4-3.4c-0.2,2.3-0.4,4.8-0.6,7.4
				L315.7,198.1z"/>
			<path class="st10" d="M402.2,354.6c-0.2-2-1.9-3.5-3.9-3.3c-2,0.2-3.5,1.9-3.3,3.9l0.9,11.7c0.2,2,1.9,3.5,3.9,3.3
				c2-0.2,3.5-1.9,3.3-3.9L402.2,354.6z"/>
			<path class="st6" d="M331,139.4c-1.9-0.6-3.9,0.5-4.5,2.4l-3.5,11.2c-0.6,1.9,0.5,3.9,2.4,4.5c1.9,0.6,3.9-0.5,4.5-2.4l3.5-11.2
				C333.9,142,332.9,140,331,139.4z"/>
			<path class="st6" d="M370.4,322.3c1.6-1.2,1.9-3.5,0.7-5.1l-7.1-9.3c-1.2-1.6-3.5-1.9-5.1-0.7c-1.6,1.2-1.9,3.5-0.7,5.1l7.1,9.3
				C366.6,323.2,368.9,323.5,370.4,322.3z"/>
		</g>
		<path class="st1" d="M357.2,140.3c0,0-8.2,33.5-1.3,62.6c7,29.1,42,51.3,42,51.3l3.9,29.7c0,0-25.5-6.3-47.2-30.5
			c-21.7-24.2-22.4-71.1-20.4-88.4c2.1-17.3,6.8-36.2,6.8-36.2S351.5,130.3,357.2,140.3z"/>
		<path class="st2" d="M485.7,267.3c-20.5-61.1-132.2-128.1-132.2-128.1s-8.4,40.2,4.7,62.2c19.7,33.1,47.1,59.3,47.1,59.3l-0.3,0.3
			l21.3,2.2L485.7,267.3z"/>
		<path class="st2" d="M426.3,263.3l-21.3-2.2l-60.3,75.4c0,0,2.1,21.7,10.4,38.1c10,19.8,113.5-23.7,131.6-76.8
			c3.3-9.6,2.6-19.9-1-30.5L426.3,263.3z"/>
		<g>
			<path class="st0" d="M346.2,335.3c-0.1,0-0.2,0-0.3-0.1c-0.2-0.2-0.3-0.5-0.1-0.7l15.9-19.8c0.4-0.6,2.6-3.2,5.5-6.8
				c9-10.9,27.6-33.7,28.2-34.9c0.7-1.4,6.6-8.9,7.3-9.7c0.2-0.2,0.5-0.3,0.7-0.1c0.2,0.2,0.3,0.5,0.1,0.7c-1.8,2.3-6.7,8.4-7.2,9.5
				c-0.4,0.9-11.7,14.7-28.4,35.1c-2.9,3.6-5.1,6.2-5.5,6.8l-15.9,19.8C346.5,335.2,346.3,335.3,346.2,335.3z"/>
		</g>
		<g>
			<path class="st0" d="M163.2,329.7C163.2,329.7,163.2,329.7,163.2,329.7c-0.3,0-0.5-0.2-0.5-0.5c0.9-25.5,9.7-64.6,9.8-65
				c0,0,0,0,0-0.1c0.6-1.7,15.6-41.8,16.2-43.4c0.9-2.2,15.9-36.9,16.9-38.8l0.1-0.1c4.1-7.4,17.7-31.8,23.3-35.6
				c0.2-0.2,0.6-0.1,0.7,0.1c0.2,0.2,0.1,0.6-0.1,0.7c-5.5,3.7-20.1,30-23,35.2l-0.1,0.1c-1,1.9-16,36.4-16.9,38.7
				c-0.7,1.6-15.7,42-16.2,43.3c-0.3,1.3-8.8,39.7-9.8,64.7C163.7,329.5,163.5,329.7,163.2,329.7z"/>
		</g>
		<g>
			<path class="st0" d="M333.5,385c-8.2,4.6-8.4,16.7-8.3,20c19.8,1,48,1.7,60.6-1.3c11.9-2.8,23.2-6.1,30.5-8.2
				c4.7-1.4,7.5-6.2,6.3-11c-0.9-3.6-2-8.2-3.3-13.6C392.3,379.6,342.4,379.9,333.5,385z"/>
		</g>
		<path class="st0" d="M180.5,380c-3.8-4.7-14.3-11.6-21.5-13.4c-0.9,10.5-1.3,18.6-0.6,22.1c1.5,7.7,13.3,11.9,24.3,14.2
			C183.5,398,185,385.6,180.5,380z"/>
		<g>
			<path class="st0" d="M282.2,75.6c0,0-3.4-1.7-5.6-1.9c-2.2-0.3-3.3-0.1-3.3-0.1l-0.8,1.7c0,0,6,0.2,7.4,1.4
				C281.4,78,282.2,75.6,282.2,75.6z"/>
			<path class="st0" d="M297.9,74.9c-0.8-0.8-5.9-1.1-7.2-1.3c-1.3-0.3-7.3-1.3-9.1,0.5c-1.9,1.8-1.2,5.4-1.3,7.8
				c-0.1,2.4,0.4,5.3,6.2,5.6c3.6,0.2,6.6,0.4,9.2-3.2c1.3-1.8,1.3-5.1,1.3-5.4c0-0.3,1.4-1.5,1.4-1.5S298.8,75.7,297.9,74.9z
				 M295.4,79.4c-0.5,7.9-5.7,7.5-8.9,7.3c-3.2-0.3-4.6-1.9-4.8-2.7c-0.2-0.8-1.2-7.4,1-8.7c2.3-1.3,10.7,0.4,12.1,1
				C296.2,76.9,295.4,79.4,295.4,79.4z"/>
			<path class="st0" d="M264.5,69.2c-1.6-0.1-4.5-0.4-5.3-0.4s-0.5,1-0.7,2.4c-0.2,1.4,1.2,1.3,1.8,1.1c0.6-0.3-1.1,6.2-1,7.5
				c0.1,1.3,2.5,4.1,7.7,4c5.2-0.1,7.1-9,7.8-9.9C275.3,72.7,268,69.4,264.5,69.2z M272,76.2c-1.8,7.6-5.5,6.2-7.9,5.6
				c-2.4-0.5-3.2-2.2-3.3-3c0-0.8,0.3-7.3,2.3-8.3s8.2,1.8,9.2,2.5C273.3,73.7,272,76.2,272,76.2z"/>
			<path class="st0" d="M296.1,75.1c0,0,14.6-0.5,15-0.3c0.4,0.3,0.3,0.8,0.1,1.2c-0.2,0.3-15.3,2.7-15.3,2.7L296.1,75.1z"/>
		</g>
		<g>
			<path class="st0" d="M289.7,480.4c-0.2,0-0.4-0.2-0.5-0.4c-0.1-0.4-9.1-39.1-18.6-45.1c-4-2.5-18.4-4.8-34.3-5.4
				c-17.3-0.7-29.9,0.8-33,3.7c-0.8,0.7-0.8,1.5-0.2,2.5c5.5,9,45.5,5,58.6,3.7c2.4-0.2,3.8-0.4,4.3-0.4c0.3,0,0.5,0.2,0.5,0.5
				c0,0.3-0.2,0.5-0.5,0.5c-0.5,0-2,0.2-4.2,0.4c-23.1,2.3-54.4,4.3-59.6-4.2c-0.8-1.4-0.7-2.7,0.4-3.8c4.8-4.7,27-4.3,33.7-4
				c13.4,0.5,30,2.5,34.8,5.5c9.9,6.2,18.7,44.1,19,45.7c0.1,0.3-0.1,0.5-0.4,0.6C289.7,480.4,289.7,480.4,289.7,480.4z"/>
		</g>
		<g>
			<path class="st0" d="M210.8,459.3c-0.2,0-0.4-0.1-0.5-0.3c-0.1-0.3,0-0.6,0.3-0.7c2.1-0.8,58.8-13.7,61.2-14.2
				c0.3-0.1,0.5,0.1,0.6,0.4c0.1,0.3-0.1,0.5-0.4,0.6c-20.4,4.6-59.4,13.6-61,14.2C210.9,459.2,210.8,459.3,210.8,459.3z"/>
		</g>
		<g>
			<g>
				<path class="st0" d="M389.4,409.5c-0.2,0-0.5-0.2-0.5-0.4l-0.5-3c0-0.3,0.1-0.5,0.4-0.6c0.3,0,0.5,0.1,0.6,0.4l0.5,3
					C390,409.1,389.8,409.4,389.4,409.5C389.5,409.5,389.4,409.5,389.4,409.5z"/>
			</g>
			<g>
				<path class="st0" d="M441.8,705.7c-0.2,0-0.5-0.2-0.5-0.4c-0.4-2.1-0.7-4.1-1.1-5.9c-0.1-0.3,0.1-0.5,0.4-0.6
					c0.3-0.1,0.5,0.1,0.6,0.4c0.4,1.8,0.8,3.8,1.1,5.9C442.4,705.4,442.2,705.7,441.8,705.7C441.9,705.7,441.9,705.7,441.8,705.7z
					 M439.4,694c-0.2,0-0.4-0.2-0.5-0.4c-0.3-1.3-0.8-3.3-1.3-5.9c-0.1-0.3,0.1-0.5,0.4-0.6c0.3-0.1,0.5,0.1,0.6,0.4
					c0.5,2.7,1,4.6,1.3,5.9c0.1,0.3-0.1,0.6-0.4,0.6C439.4,693.9,439.4,694,439.4,694z M436.9,682.1c-0.2,0-0.5-0.2-0.5-0.4
					c-0.4-1.8-0.7-3.8-1.1-5.9c-0.1-0.3,0.1-0.5,0.4-0.6c0.3-0.1,0.5,0.1,0.6,0.4c0.4,2.1,0.8,4.1,1.1,5.9
					C437.4,681.8,437.2,682.1,436.9,682.1C436.9,682.1,436.9,682.1,436.9,682.1z M434.6,670.3c-0.2,0-0.5-0.2-0.5-0.4
					c-0.4-1.9-0.7-3.9-1.1-5.9c-0.1-0.3,0.1-0.5,0.4-0.6c0.3-0.1,0.5,0.1,0.6,0.4c0.4,2,0.7,4,1.1,5.9
					C435.2,670,435,670.2,434.6,670.3C434.7,670.3,434.6,670.3,434.6,670.3z M432.4,658.4c-0.2,0-0.5-0.2-0.5-0.4
					c-0.4-2-0.7-4-1.1-5.9c0-0.3,0.1-0.5,0.4-0.6c0.3,0,0.5,0.1,0.6,0.4c0.4,2,0.7,4,1.1,5.9C433,658.1,432.8,658.4,432.4,658.4
					C432.5,658.4,432.4,658.4,432.4,658.4z M430.3,646.5c-0.2,0-0.5-0.2-0.5-0.4c-0.4-2-0.7-4-1-5.9c0-0.3,0.1-0.5,0.4-0.6
					c0.3,0,0.5,0.1,0.6,0.4c0.3,1.9,0.7,3.9,1,5.9C430.8,646.2,430.7,646.5,430.3,646.5C430.4,646.5,430.3,646.5,430.3,646.5z
					 M428.2,634.7c-0.2,0-0.5-0.2-0.5-0.4c-0.4-2.1-0.7-4.1-1-6c0-0.3,0.1-0.5,0.4-0.6c0.3,0,0.5,0.1,0.6,0.4c0.3,1.8,0.6,3.8,1,5.9
					C428.8,634.3,428.6,634.6,428.2,634.7C428.3,634.7,428.3,634.7,428.2,634.7z M426.3,622.7c-0.2,0-0.5-0.2-0.5-0.4
					c-0.3-1.8-0.4-3.2-0.5-4.2c-0.1-0.6-0.1-1.2-0.2-1.9c0-0.3,0.2-0.5,0.5-0.5c0.3,0,0.5,0.2,0.5,0.5c0.1,0.6,0.1,1.3,0.2,1.9
					c0.1,0.9,0.3,2.3,0.5,4.1C426.9,622.4,426.7,622.7,426.3,622.7C426.4,622.7,426.4,622.7,426.3,622.7z M425.3,610.7
					c-0.3,0-0.5-0.2-0.5-0.5c-0.1-2.1-0.2-4-0.4-6c0-0.3,0.2-0.5,0.5-0.5c0.3,0,0.5,0.2,0.5,0.5c0.2,2,0.3,3.9,0.4,6
					C425.8,610.5,425.6,610.7,425.3,610.7C425.3,610.7,425.3,610.7,425.3,610.7z M424.3,598.7c-0.3,0-0.5-0.2-0.5-0.4
					c-0.3-2.1-0.6-4.1-1-5.9c-0.1-0.3,0.1-0.5,0.4-0.6c0.3-0.1,0.5,0.1,0.6,0.4c0.4,1.9,0.7,3.8,1,6
					C424.8,598.4,424.6,598.7,424.3,598.7C424.3,598.7,424.3,598.7,424.3,598.7z M421.7,587c-0.2,0-0.4-0.1-0.5-0.3
					c-0.7-1.9-1.4-3.8-2.3-5.4l0.4-0.3l0.5-0.2l0,0c0.9,1.7,1.7,3.6,2.4,5.6c0.1,0.3-0.1,0.6-0.3,0.6C421.8,587,421.8,587,421.7,587
					z M417,575.9c-0.2,0-0.4-0.1-0.5-0.3c-0.6-1.8-1.2-3.7-1.7-5.8c-0.1-0.3,0.1-0.5,0.4-0.6c0.3-0.1,0.5,0.1,0.6,0.4
					c0.5,2.1,1.1,4,1.6,5.7c0.1,0.3-0.1,0.6-0.3,0.6C417.1,575.9,417.1,575.9,417,575.9z M414.1,564.2c-0.2,0-0.5-0.2-0.5-0.4
					c-0.3-1.8-0.7-3.8-1-6c0-0.3,0.1-0.5,0.4-0.6c0.3,0,0.5,0.1,0.6,0.4c0.3,2.2,0.7,4.1,1,5.9C414.7,563.9,414.5,564.2,414.1,564.2
					C414.2,564.2,414.1,564.2,414.1,564.2z M412.2,552.3c-0.3,0-0.5-0.2-0.5-0.4c-0.2-1.3-0.4-2.7-0.5-4.1l-0.3-1.9
					c0-0.3,0.2-0.5,0.4-0.6c0.3,0,0.5,0.2,0.6,0.4l0.3,1.9c0.2,1.4,0.4,2.7,0.5,4.1C412.8,552,412.6,552.3,412.2,552.3
					C412.3,552.3,412.3,552.3,412.2,552.3z M410.6,540.4c-0.2,0-0.5-0.2-0.5-0.4c-0.3-2.2-0.6-4.2-0.9-5.9c0-0.3,0.1-0.5,0.4-0.6
					c0.3,0,0.5,0.1,0.6,0.4c0.3,1.8,0.6,3.7,0.9,6C411.2,540.1,411,540.4,410.6,540.4C410.7,540.4,410.6,540.4,410.6,540.4z
					 M408.6,528.5c-0.2,0-0.5-0.2-0.5-0.4c-0.3-1.7-0.6-3.7-1-6c0-0.3,0.1-0.5,0.4-0.6c0.3,0,0.5,0.1,0.6,0.4c0.4,2.3,0.7,4.3,1,5.9
					C409.1,528.2,409,528.5,408.6,528.5C408.7,528.5,408.6,528.5,408.6,528.5z M406.6,516.6c-0.2,0-0.5-0.2-0.5-0.4
					c-0.3-1.9-0.6-3.9-1-6c0-0.3,0.1-0.5,0.4-0.6c0.3,0,0.5,0.1,0.6,0.4c0.3,2.1,0.7,4.1,1,6C407.1,516.3,407,516.6,406.6,516.6
					C406.6,516.6,406.6,516.6,406.6,516.6z M404.6,504.7c-0.2,0-0.5-0.2-0.5-0.4c-0.3-1.9-0.6-3.9-1-6c0-0.3,0.1-0.5,0.4-0.6
					c0.3,0,0.5,0.1,0.6,0.4c0.3,2,0.7,4,1,6C405.2,504.4,405,504.7,404.6,504.7C404.7,504.7,404.7,504.7,404.6,504.7z M402.7,492.8
					c-0.2,0-0.5-0.2-0.5-0.4l-1-6c0-0.3,0.1-0.5,0.4-0.6c0.3,0,0.5,0.1,0.6,0.4l1,6C403.3,492.5,403.1,492.8,402.7,492.8
					C402.8,492.8,402.7,492.8,402.7,492.8z M400.8,480.9c-0.2,0-0.5-0.2-0.5-0.4l-1-6c0-0.3,0.1-0.5,0.4-0.6c0.3,0,0.5,0.1,0.6,0.4
					l1,6C401.3,480.6,401.1,480.9,400.8,480.9C400.8,480.9,400.8,480.9,400.8,480.9z M398.9,469c-0.2,0-0.5-0.2-0.5-0.4l-1-5.9
					c0-0.3,0.1-0.5,0.4-0.6c0.3,0,0.5,0.1,0.6,0.4l1,5.9C399.4,468.7,399.2,469,398.9,469C398.9,469,398.9,469,398.9,469z
					 M397,457.1c-0.2,0-0.5-0.2-0.5-0.4l-0.9-6c0-0.3,0.1-0.5,0.4-0.6c0.3,0,0.5,0.1,0.6,0.4l0.9,6C397.5,456.8,397.3,457,397,457.1
					C397,457.1,397,457.1,397,457.1z M395.1,445.2c-0.2,0-0.5-0.2-0.5-0.4l-0.9-6c0-0.3,0.1-0.5,0.4-0.6c0.3,0,0.5,0.1,0.6,0.4
					l0.9,6C395.6,444.9,395.4,445.1,395.1,445.2C395.1,445.2,395.1,445.2,395.1,445.2z M393.2,433.3c-0.2,0-0.5-0.2-0.5-0.4l-0.9-6
					c0-0.3,0.1-0.5,0.4-0.6c0.3,0,0.5,0.1,0.6,0.4l0.9,6C393.7,433,393.5,433.2,393.2,433.3C393.2,433.3,393.2,433.3,393.2,433.3z
					 M391.3,421.4c-0.2,0-0.5-0.2-0.5-0.4l-0.9-6c0-0.3,0.1-0.5,0.4-0.6c0.3,0,0.5,0.1,0.6,0.4l0.9,6
					C391.8,421.1,391.7,421.3,391.3,421.4C391.3,421.4,391.3,421.4,391.3,421.4z"/>
			</g>
			<g>
				<path class="st0" d="M443.1,714.3c-0.3,0-0.5-0.2-0.5-0.5c0,0-0.1-1.2-0.4-3c0-0.3,0.2-0.5,0.4-0.6c0.3,0,0.5,0.2,0.6,0.4
					c0.3,1.9,0.4,3,0.4,3C443.6,714,443.4,714.2,443.1,714.3C443.1,714.3,443.1,714.3,443.1,714.3z"/>
			</g>
		</g>
		<g>
			<path class="st0" d="M287.4,717.8c-0.3,0-0.5-0.2-0.5-0.5c-0.1-1.7-0.2-3.8-0.3-6.1c0-0.3,0.2-0.5,0.5-0.5c0.3,0,0.5,0.2,0.5,0.5
				c0.1,2.4,0.2,4.4,0.3,6.1C287.9,717.6,287.7,717.8,287.4,717.8C287.4,717.8,287.4,717.8,287.4,717.8z M286.8,705.5
				c-0.3,0-0.5-0.2-0.5-0.5c-0.1-1.9-0.2-4-0.3-6.1c0-0.3,0.2-0.5,0.5-0.5c0.3,0,0.5,0.2,0.5,0.5c0.1,2.1,0.2,4.2,0.3,6.1
				C287.3,705.3,287.1,705.5,286.8,705.5C286.8,705.5,286.8,705.5,286.8,705.5z M286.2,693.3c-0.3,0-0.5-0.2-0.5-0.5
				c-0.1-2-0.2-4.1-0.3-6.1c0-0.3,0.2-0.5,0.5-0.5c0.3,0,0.5,0.2,0.5,0.5c0.1,2.1,0.2,4.1,0.3,6.1
				C286.7,693,286.5,693.3,286.2,693.3C286.2,693.3,286.2,693.3,286.2,693.3z M285.6,681c-0.3,0-0.5-0.2-0.5-0.5
				c-0.1-2-0.2-4.1-0.3-6.1c0-0.3,0.2-0.5,0.5-0.5c0.3,0,0.5,0.2,0.5,0.5c0.1,2,0.2,4.1,0.3,6.1C286.1,680.8,285.9,681,285.6,681
				C285.6,681,285.6,681,285.6,681z M284.9,668.8c-0.3,0-0.5-0.2-0.5-0.5c-0.1-2.1-0.3-4.1-0.4-6.1c0-0.3,0.2-0.5,0.5-0.5
				c0.3,0,0.5,0.2,0.5,0.5c0.1,2,0.3,4,0.4,6.1C285.4,668.5,285.2,668.8,284.9,668.8C284.9,668.8,284.9,668.8,284.9,668.8z
				 M284.1,656.5c-0.3,0-0.5-0.2-0.5-0.5c-0.2-2.2-0.3-4.2-0.5-6.1c0-0.3,0.2-0.5,0.5-0.5c0.3,0,0.5,0.2,0.5,0.5
				c0.2,1.9,0.3,4,0.5,6.1C284.6,656.3,284.4,656.5,284.1,656.5C284.1,656.5,284.1,656.5,284.1,656.5z M283.2,644.3
				c-0.3,0-0.5-0.2-0.5-0.5l-0.5-6.1c0-0.3,0.2-0.5,0.5-0.6c0.3,0,0.5,0.2,0.5,0.5l0.5,6.1C283.7,644,283.5,644.3,283.2,644.3
				C283.2,644.3,283.2,644.3,283.2,644.3z M282.2,632.1c-0.3,0-0.5-0.2-0.5-0.5l-0.5-6.1c0-0.3,0.2-0.5,0.5-0.5
				c0.3,0,0.5,0.2,0.5,0.5l0.5,6.1C282.7,631.8,282.5,632.1,282.2,632.1C282.2,632.1,282.2,632.1,282.2,632.1z M281.2,619.9
				c-0.3,0-0.5-0.2-0.5-0.5l-0.5-6.1c0-0.3,0.2-0.5,0.5-0.5c0.3,0,0.5,0.2,0.5,0.5l0.5,6.1C281.7,619.6,281.5,619.8,281.2,619.9
				C281.2,619.9,281.2,619.9,281.2,619.9z M280.2,607.6c-0.3,0-0.5-0.2-0.5-0.5l-0.5-6.1c0-0.3,0.2-0.5,0.5-0.5
				c0.3,0,0.5,0.2,0.5,0.5l0.5,6.1C280.8,607.4,280.6,607.6,280.2,607.6C280.3,607.6,280.3,607.6,280.2,607.6z M279.3,595.4
				c-0.3,0-0.5-0.2-0.5-0.5l-0.5-6.1c0-0.3,0.2-0.5,0.5-0.5c0.3,0,0.5,0.2,0.5,0.5l0.5,6.1C279.8,595.1,279.6,595.4,279.3,595.4
				C279.3,595.4,279.3,595.4,279.3,595.4z M278.3,583.2c-0.3,0-0.5-0.2-0.5-0.5l-0.5-6.1c0-0.3,0.2-0.5,0.5-0.5
				c0.3,0,0.5,0.2,0.5,0.5l0.5,6.1C278.8,582.9,278.6,583.2,278.3,583.2C278.3,583.2,278.3,583.2,278.3,583.2z M277.3,571
				c-0.3,0-0.5-0.2-0.5-0.5l-0.5-6.1c0-0.3,0.2-0.5,0.5-0.5c0.3,0,0.5,0.2,0.5,0.5l0.5,6.1C277.9,570.7,277.7,570.9,277.3,571
				C277.4,571,277.4,571,277.3,571z M276.4,558.7c-0.3,0-0.5-0.2-0.5-0.5c-0.1-2-0.2-4.1-0.4-6.1c0-0.3,0.2-0.5,0.5-0.5
				c0.3,0,0.5,0.2,0.5,0.5c0.1,2,0.2,4.1,0.4,6.1C277,558.5,276.8,558.7,276.4,558.7C276.5,558.7,276.5,558.7,276.4,558.7z
				 M275.8,546.5c-0.3,0-0.5-0.2-0.5-0.5c-0.1-1.8-0.2-3.7-0.3-5.5l0-0.6c0-0.3,0.2-0.5,0.5-0.5c0.3,0,0.5,0.2,0.5,0.5l0,0.6
				c0.1,1.8,0.2,3.7,0.3,5.5C276.3,546.3,276.1,546.5,275.8,546.5C275.8,546.5,275.8,546.5,275.8,546.5z M275.2,534.3
				c-0.3,0-0.5-0.2-0.5-0.5c-0.1-2.1-0.2-4.1-0.3-6.1c0-0.3,0.2-0.5,0.5-0.5c0.3,0,0.5,0.2,0.5,0.5c0.1,2,0.2,4.1,0.3,6.1
				C275.7,534,275.5,534.3,275.2,534.3C275.2,534.3,275.2,534.3,275.2,534.3z M274.5,522c-0.3,0-0.5-0.2-0.5-0.5
				c-0.1-2.1-0.3-4.2-0.5-6.1c0-0.3,0.2-0.5,0.5-0.6c0.3,0,0.5,0.2,0.6,0.5c0.2,1.9,0.3,4,0.5,6.1C275,521.8,274.8,522,274.5,522
				C274.5,522,274.5,522,274.5,522z M273.4,509.8c-0.3,0-0.5-0.2-0.5-0.5c-0.2-2.1-0.5-4.2-0.7-6.1c0-0.3,0.2-0.5,0.4-0.6
				c0.3,0,0.5,0.2,0.6,0.4c0.3,1.9,0.5,4,0.7,6.1C274,509.5,273.8,509.8,273.4,509.8C273.5,509.8,273.5,509.8,273.4,509.8z
				 M271.8,497.7c-0.2,0-0.5-0.2-0.5-0.4c-0.3-1.9-0.6-4-0.9-6.1c0-0.3,0.2-0.5,0.4-0.6c0.3,0,0.5,0.2,0.6,0.4
				c0.3,2.1,0.5,4.1,0.9,6C272.4,497.4,272.2,497.6,271.8,497.7C271.9,497.7,271.8,497.7,271.8,497.7z M270.3,485.5
				c-0.3,0-0.5-0.2-0.5-0.5c-0.2-2-0.3-4-0.5-6.1c0-0.3,0.2-0.5,0.5-0.5c0.3,0,0.5,0.2,0.5,0.5c0.1,2.1,0.3,4.1,0.5,6.1
				C270.9,485.2,270.6,485.5,270.3,485.5C270.3,485.5,270.3,485.5,270.3,485.5z M269.6,473.3c-0.3,0-0.5-0.2-0.5-0.5
				c-0.1-2-0.1-4.1-0.2-6.1c0-0.3,0.2-0.5,0.5-0.5c0,0,0,0,0,0c0.3,0,0.5,0.2,0.5,0.5c0,2,0.1,4.1,0.1,6.1
				C270.1,473,269.9,473.3,269.6,473.3C269.6,473.3,269.6,473.3,269.6,473.3z M269.4,461C269.4,461,269.4,461,269.4,461
				c-0.3,0-0.5-0.2-0.5-0.5c0-3.8,0.1-6.1,0.1-6.1c0-0.3,0.3-0.5,0.5-0.5c0.3,0,0.5,0.3,0.5,0.5c0,0-0.1,2.4-0.1,6.1
				C269.9,460.8,269.7,461,269.4,461z"/>
		</g>
		<g>
			<path class="st0" d="M285.9,737.8c-2.6,0-5.7-0.1-9.2-0.2c-2.9-0.1-6.2-0.2-9.6-0.2c-11.4-0.2-35.9-1.2-36.1-1.2
				c-0.3,0-0.5-0.2-0.5-0.5c0-0.3,0.2-0.5,0.5-0.5c0.2,0,24.7,1,36.1,1.2c3.4,0.1,6.7,0.1,9.6,0.2c7.2,0.2,12.9,0.4,15.2-0.2
				c3.2-0.8,9.7-4.1,9.8-4.1c0.3-0.1,0.6,0,0.7,0.2c0.1,0.3,0,0.6-0.2,0.7c-0.3,0.1-6.7,3.3-10,4.2
				C290.9,737.7,288.8,737.8,285.9,737.8z"/>
		</g>
		<g>
			<path class="st0" d="M392.8,734.6c-0.3,0-0.5-0.2-0.5-0.5c0-0.3,0.2-0.5,0.5-0.5c0.2,0,17.4-0.4,26.1-1.4
				c8.9-1,20.7-2.9,24.1-3.6c3.5-0.7,9.9-1.7,10-1.7c0.3,0,0.5,0.1,0.6,0.4c0,0.3-0.1,0.5-0.4,0.6c-0.1,0-6.5,1-10,1.7
				c-3.5,0.7-15.3,2.6-24.2,3.6C410.3,734.3,393,734.6,392.8,734.6C392.8,734.6,392.8,734.6,392.8,734.6z"/>
		</g>
		<g>
			<path class="st6" d="M212,241.3c1.1-1.7,0.6-3.9-1-5l-9.7-6.5c-1.7-1.1-3.9-0.6-5,1c-1.1,1.7-0.6,3.9,1,5l9.7,6.5
				C208.6,243.4,210.9,243,212,241.3z"/>
			<path class="st6" d="M224.5,181.2l-10.8,4.4c-1.8,0.8-2.7,2.9-2,4.7c0.8,1.8,2.9,2.7,4.7,2l10.8-4.4c1.8-0.8,2.7-2.9,2-4.7
				C228.5,181.3,226.3,180.4,224.5,181.2z"/>
			<path class="st6" d="M244.1,159.3c0.3,2,2.2,3.3,4.1,3c2-0.3,3.3-2.2,3-4.1l-1.8-11.6c-0.3-2-2.2-3.3-4.1-3c-2,0.3-3.3,2.2-3,4.1
				L244.1,159.3z"/>
			<path class="st6" d="M177.2,352.2c-0.5,1.9,0.6,3.9,2.5,4.4c1.9,0.5,3.9-0.6,4.4-2.5l3.1-11.3c0.5-1.9-0.6-3.9-2.5-4.4
				c-1.9-0.5-3.9,0.6-4.4,2.5L177.2,352.2z"/>
			<path class="st6" d="M199.9,296.1l-9.6-6.6c-1.6-1.1-3.9-0.7-5,0.9c-1.1,1.6-0.7,3.9,0.9,5l9.6,6.6c1.6,1.1,3.9,0.7,5-0.9
				C202,299.5,201.6,297.2,199.9,296.1z"/>
		</g>
		<g>
			<path class="st10" d="M423.4,263.3c1.1,0.6,2.3,0.5,3.3,0l-0.4,0l-3.8-0.4L423.4,263.3z"/>
			<path class="st6" d="M480,303.6c0.3-2-1-3.8-3-4.2l-11.5-1.9c-2-0.3-3.8,1-4.2,3c-0.3,2,1,3.8,3,4.2l11.5,1.9
				C477.8,306.8,479.7,305.5,480,303.6z"/>
			<path class="st6" d="M411.9,361.3c-2-0.3-3.8,1-4.1,3l-0.7,4.4c2.6-1.1,5.2-2.4,7.9-3.7C415,363.2,413.7,361.6,411.9,361.3z"/>
			<path class="st6" d="M408.6,318.4l10.3,5.5c1.7,0.9,3.9,0.3,4.9-1.5c0.9-1.7,0.3-3.9-1.5-4.9L412,312c-1.7-0.9-3.9-0.3-4.9,1.5
				C406.2,315.2,406.8,317.4,408.6,318.4z"/>
			<path class="st6" d="M368.6,330c-1.2-1.6-3.5-1.9-5.1-0.6l-9.2,7.2c-1.6,1.2-1.9,3.5-0.6,5.1c1.2,1.6,3.5,1.9,5.1,0.6l9.2-7.2
				C369.5,333.9,369.8,331.6,368.6,330z"/>
		</g>
		<g>
			<path class="st6" d="M381.3,224.3c-1.7-1.1-3.9-0.6-5,1.1l-0.9,1.3c1.6,2.1,3.2,4.1,4.7,6l2.2-3.4
				C383.4,227.6,383,225.3,381.3,224.3z"/>
			<path class="st6" d="M428.2,261.8c0.9-1.8,0.2-4-1.6-4.9l-10.4-5.4c-1.8-0.9-4-0.2-4.9,1.6c-0.9,1.8-0.2,4,1.6,4.9l9.5,4.9
				l3.8,0.4l0.4,0C427.3,263,427.9,262.5,428.2,261.8z"/>
			<path class="st6" d="M422.3,211.1c1,1.7,3.2,2.4,4.9,1.4l10.3-5.6c1.1-0.6,1.8-1.7,1.9-2.9c-1.4-1.3-2.7-2.5-4.1-3.8
				c-0.4,0.1-0.8,0.2-1.2,0.4l-10.3,5.6C422,207.2,421.4,209.4,422.3,211.1z"/>
			<path class="st6" d="M392.9,195.3l-10.9-4.1c-1.9-0.7-4,0.3-4.6,2.1c-0.7,1.9,0.3,4,2.1,4.6l10.9,4.1c1.9,0.7,4-0.3,4.6-2.1
				C395.7,198.1,394.7,196,392.9,195.3z"/>
			<path class="st6" d="M478.1,250.8l-1.9,1.4c-1.6,1.2-2,3.4-0.8,5c1.2,1.6,3.4,2,5,0.8l1.1-0.8
				C480.5,255.1,479.4,252.9,478.1,250.8z"/>
			<path class="st6" d="M373.9,155.8c-1.9,0.6-3,2.6-2.5,4.5c0.6,1.9,2.6,3,4.5,2.5l9.1-2.6c-2.6-1.9-5.2-3.7-7.6-5.3L373.9,155.8z"
				/>
		</g>
		<g>
			<path class="st0" d="M388.6,243.4c-0.1,0-0.3-0.1-0.4-0.2c-0.2-0.2-16.8-20.4-22.3-28.7c-5.5-8.3-8.1-12.7-8.2-12.7
				c-0.1-0.2-0.1-0.6,0.2-0.7c0.2-0.1,0.6-0.1,0.7,0.2c0,0,2.7,4.4,8.2,12.7c5.4,8.3,22,28.4,22.2,28.6c0.2,0.2,0.1,0.5-0.1,0.7
				C388.9,243.3,388.8,243.4,388.6,243.4z"/>
		</g>
		<g>
			<path class="st0" d="M448.3,295.5c-13.7,0-40.8-26.5-42-27.7c-0.2-0.2-0.2-0.5,0-0.7c0.2-0.2,0.5-0.2,0.7,0
				c0.1,0.1,7.9,7.8,17.2,14.9c12.1,9.4,21.2,13.6,26.1,12.2c1.6-0.5,1.7-1.2,1.7-1.4c0.6-5.3-25.8-20.8-36-26.3
				c-0.2-0.1-0.3-0.4-0.2-0.7c0.1-0.2,0.4-0.4,0.6-0.3c11.8,4.6,40,14.5,51.5,14.5c2.3,0,4-0.4,4.6-1.3c0.2-0.2,0.2-0.5,0.1-0.7
				c-2.3-5.6-49.5-13.9-67.5-16.7c-0.3,0-0.5-0.3-0.4-0.6c0-0.3,0.3-0.5,0.6-0.4c0.2,0,16.4,2.5,32.9,5.9
				c22.5,4.6,34.1,8.3,35.4,11.5c0.2,0.6,0.2,1.2-0.2,1.7c-2.3,3.2-12.4,2-30.9-3.6c-7.6-2.3-15.1-4.9-20.1-6.8
				c10.7,6.1,31.2,18.6,30.6,24.1c-0.1,1.1-1,1.9-2.5,2.3C449.9,295.4,449.1,295.5,448.3,295.5z"/>
		</g>
		<path class="st4" d="M153.3,366.5c4.3-1.3,7.7-5.7,12.9-5.2c5.2,0.5,15.8,2.3,15.4-1.3c-0.4-3.7-7.9-6.3-7.9-6.3
			s14.8,5.8,14.9,3.9c0.1-1.9-2.3-3.5-2.3-3.5s6.2-0.2,5-2.3c-1.2-2.1-15.2-7.2-15.2-7.2s16.5-6,14.1-7.7
			c-2.4-1.6-11.5,0.5-17.9,1.9c-6.4,1.3-18.3-0.1-24.6,10.4C141.5,359.5,149.5,367.6,153.3,366.5z"/>
		<g>
			<path class="st0" d="M173,261.6c-0.2,0-0.4-0.1-0.4-0.3c-10.3-18.7-38.2-16.5-38.4-16.5c-0.3,0-0.5-0.2-0.6-0.5
				c0-0.3,0.2-0.5,0.5-0.6c0.3,0,28.8-2.3,39.4,17c0.1,0.2,0,0.6-0.2,0.7C173.2,261.6,173.1,261.6,173,261.6z"/>
		</g>
		<g>
			<path class="st0" d="M166.5,272c-0.2,0-0.4-0.1-0.5-0.3c0,0-1.2-2.8-7.1-7.1c-3.8-2.7-9.4-3.2-14.9-3.7c-3.2-0.3-6.2-0.5-8.7-1.2
				c-3.2-0.9-3.2-2.5-3.1-3.2c0.3-1.5,2.3-2.9,5.3-3.8c2.4-0.7,6.6-1.3,12.9-0.6c15.4,1.9,20.7,13.2,20.8,13.4
				c0.1,0.3,0,0.6-0.3,0.7c-0.3,0.1-0.6,0-0.7-0.3c0,0-1.3-2.8-4.4-5.7c-2.8-2.7-7.9-6.1-15.6-7.1c-10.6-1.3-16.7,1.6-17.1,3.6
				c-0.2,0.8,0.7,1.5,2.3,2c2.5,0.7,5.4,0.9,8.5,1.2c5.6,0.5,11.4,1,15.4,3.9c6.2,4.5,7.4,7.4,7.5,7.6c0.1,0.3,0,0.6-0.3,0.7
				C166.6,272,166.6,272,166.5,272z"/>
		</g>
		<path class="st11" d="M349.9,558.5c0,0,4.8,12.9,5.6,13.4c0.8,0.5,5.6-3,5.6-3s6.8,4.9,8.6,3.1c1.8-1.9,0.3-5.8,1.8-6.5
			c1.5-0.8,5.2,1.5,5.7,0c0.5-1.5-6.4-16.5-8.3-20.1c-1.8-3.6-6.9-1.5-6.9,0s-3.1,0.8-4.2,2.1C356.8,548.7,345.3,547,349.9,558.5z"
			/>
		<path class="st11" d="M399.9,599c0,0-8.6-0.3-10.9,2.6c-2.2,2.8-5.6,4.6-6.7,7c-1.1,2.3-0.1,7,2.4,10.6c2.5,3.6,7.7,10.1,11.1,7.7
			c3.4-2.3,4.1-5.4,4.1-5.4s5.6,0.5,9.4-1.3s5.6-1.5,5.6-3.4S408,598.1,399.9,599z"/>
		<path class="st11" d="M247.3,599c-2.1-7.3-19.2-6.2-19.2-6.2l5.1-3.1c0,0-1-6.2-15.8-5.8c-6.2,0.1-10.4,0.2-13.3,0.1
			c2.6,14.5,5.2,28.9,7.8,42.7c12.3-1,36-2.9,35.4-5C246.7,619,249.4,606.2,247.3,599z"/>
	</g>
</g>
</svg>
